<svg id="boxes" xmlns="http://www.w3.org/2000/svg" width="31.302" height="30.703" viewBox="0 0 31.302 30.703">
  <path id="Path_61" data-name="Path 61" d="M13.687,41.215H.908A.906.906,0,0,1,0,40.307V27.528a.906.906,0,0,1,.908-.908h12.78a.906.906,0,0,1,.908.908v12.78A.91.91,0,0,1,13.687,41.215Z" transform="translate(0 -10.512)" fill="#b21e3a"/>
  <path id="Path_62" data-name="Path 62" d="M41.335,41.243H28.6a.906.906,0,0,1-.908-.908V27.6a.906.906,0,0,1,.908-.908H41.329a.906.906,0,0,1,.908.908V40.329A.906.906,0,0,1,41.335,41.243Z" transform="translate(-10.935 -10.54)" fill="#b21e3a"/>
  <path id="Path_63" data-name="Path 63" d="M27.571,14.565H14.338a.906.906,0,0,1-.908-.908V.908A.906.906,0,0,1,14.338,0H27.571a.906.906,0,0,1,.908.908V13.657A.906.906,0,0,1,27.571,14.565Z" transform="translate(-5.304)" fill="#b21e3a"/>
</svg>
