<svg xmlns="http://www.w3.org/2000/svg" width="40.445" height="29.697" viewBox="0 0 40.445 29.697">
  <path id="bus" d="M29,5.632C30.608-2.659,23.28.877,13.255.138,5.2.665,2.662-1.665,2.455,2.951L2.093,6.7H11.33a1.34,1.34,0,1,1,0,2.68h-9.5l-.25,2.558H15.9a1.51,1.51,0,1,1,0,3.021H1.29c2.553,2.978-1,11.162,3.068,11.008.75,4.674,8.11,5.275,9.5,0,3.675-.4,9.508.952,12.348-.83a3.6,3.6,0,0,0,2.265.83c.75,4.674,8.115,5.275,9.5,0C45.881,26.037,40.584,4.451,29,5.632ZM11.825,25.021a2.779,2.779,0,0,1-2.76,2.691,2.612,2.612,0,0,1-2.622-2.6v-.09A2.779,2.779,0,0,1,9.2,22.33a2.612,2.612,0,0,1,2.622,2.6Zm24.111,0a2.779,2.779,0,0,1-2.76,2.691,2.612,2.612,0,0,1-2.622-2.6v-.09a2.779,2.779,0,0,1,2.76-2.691,2.612,2.612,0,0,1,2.622,2.6Z" transform="translate(-1.29 0)" fill="#b21e3a"/>
</svg>
