<svg xmlns="http://www.w3.org/2000/svg" width="12.734" height="12.734" viewBox="0 0 12.734 12.734">
  <g id="facebook" opacity="0.66">
    <g id="Group_50" data-name="Group 50">
      <path id="Facebook__x28_alt_x29_" d="M12.734,2.122A2.2,2.2,0,0,0,10.612,0H2.122A2.2,2.2,0,0,0,0,2.122v8.489a2.2,2.2,0,0,0,2.122,2.122H6.367V7.923H4.811V5.8H6.367V4.98A2.619,2.619,0,0,1,8.758,2.264H10.47V4.386H8.758a.522.522,0,0,0-.41.566V5.8H10.47V7.923H8.348v4.811h2.264a2.2,2.2,0,0,0,2.122-2.122Z"/>
    </g>
  </g>
</svg>
