<svg xmlns="http://www.w3.org/2000/svg" width="28" height="28" viewBox="0 0 28 28">
  <g id="Group_89" data-name="Group 89" transform="translate(-1609 -4630)" opacity="0.66">
    <path id="Path_67" data-name="Path 67" d="M3.434,0A3.434,3.434,0,0,0,0,3.434V24.566A3.434,3.434,0,0,0,3.434,28H24.566A3.434,3.434,0,0,0,28,24.566V3.434A3.434,3.434,0,0,0,24.566,0Z" transform="translate(1609 4630)"/>
    <path id="camera" d="M24.545,10H11.958A1.982,1.982,0,0,0,10,11.958h0V24.825a1.982,1.982,0,0,0,1.958,1.958H24.825a2.021,2.021,0,0,0,1.958-1.958V11.958A2.293,2.293,0,0,0,24.545,10Zm-6.154,5.315a3.077,3.077,0,1,1-3.077,3.077A3.1,3.1,0,0,1,18.391,15.315Zm6.154,8.112a1.122,1.122,0,0,1-1.119,1.119H13.357a1.122,1.122,0,0,1-1.119-1.119V16.993H13.58a3.863,3.863,0,0,0-.224,1.4,5.035,5.035,0,0,0,10.07,0,3.863,3.863,0,0,0-.224-1.4h1.343Zm0-10.629v1.678h0a.561.561,0,0,1-.559.559H22.308a.561.561,0,0,1-.559-.559h0V12.8h0a.529.529,0,0,1,.559-.559h1.678a.561.561,0,0,1,.559.559Z" transform="translate(1604.999 4626)" fill="#fff"/>
  </g>
</svg>
