<svg xmlns="http://www.w3.org/2000/svg" width="12.734" height="13.376" viewBox="0 0 12.734 13.376">
  <g id="linkedin" opacity="0.66">
    <path id="Path_32" data-name="Path 32" d="M75.716,64H65.088A1.061,1.061,0,0,0,64,65.042V76.23a1.15,1.15,0,0,0,1.088,1.146H75.712a1.1,1.1,0,0,0,1.022-1.146V65.042A1,1,0,0,0,75.716,64ZM67.947,75.15H66.123V69.192h1.824ZM67.1,68.286h-.013a.992.992,0,1,1,.013,0Zm7.516,6.864H72.79V71.892c0-.78-.265-1.314-.925-1.314a1,1,0,0,0-.935.707,1.351,1.351,0,0,0-.063.47V75.15H69.042V69.192h1.824v.829a1.836,1.836,0,0,1,1.645-.969c1.2,0,2.1.829,2.1,2.617Z" transform="translate(-64 -64)"/>
  </g>
</svg>
