<svg xmlns="http://www.w3.org/2000/svg" width="118.34" height="23.571" viewBox="0 0 118.34 23.571">
  <g id="logo" transform="translate(-139.866 -36.711)">
    <text id="text-logo" transform="translate(198.206 52.301)" font-size="12" font-family="Nunito-Regular, Nunito"><tspan x="0" y="0">Marutinasu</tspan></text>
    <path id="paint-logo" d="M29.938,22.571h0a.083.083,0,0,1-.023,0,.1.1,0,0,1-.059-.076c0-.023-.008-.035-.015-.035s-.011.005-.019.016a.106.106,0,0,1-.085.049.093.093,0,0,1-.082-.055c-.016-.03-.023-.042-.026-.042s0,.013.006.043.008.039,0,.043h0c-.01,0-.02-.009-.03-.02a.245.245,0,0,0-.078-.057c-.019-.007-.039-.052-.042-.1s-.023-.083-.052-.083a.06.06,0,0,0-.059.062.051.051,0,0,0,.05.054c.033,0,.041,0,.041.005s-.008.006-.042.019a.152.152,0,0,1-.054.008.3.3,0,0,1-.091-.014,1.594,1.594,0,0,0-.255-.041c-.228-.02-.816-.118-1.084-.18-.121-.029-.279-.064-.347-.078-.145-.029-.425-.094-.77-.178-.14-.034-.33-.078-.425-.1a2.472,2.472,0,0,1-.629-.215,1.187,1.187,0,0,0-.144-.109c-.058-.038-.106-.085-.1-.1a.347.347,0,0,1,.08-.113.135.135,0,0,1,.1-.058.3.3,0,0,1,.1.025.3.3,0,0,0,.1.024.034.034,0,0,0,.026-.008.014.014,0,0,0,0-.011c0-.025-.093-.079-.205-.12-.134-.05-.235-.121-.246-.172a.035.035,0,0,1,.01-.034.024.024,0,0,1,.015,0,1.151,1.151,0,0,1,.351.1c0,.018.091.052.177.075a1.455,1.455,0,0,1,.324.14.564.564,0,0,0,.157.077.046.046,0,0,1,.025-.005.476.476,0,0,1,.108.019.7.7,0,0,0,.165.024h.034a.1.1,0,0,1,.094.049.788.788,0,0,0,.28.156c.146.057.222.1.232.125a.015.015,0,0,1,0,.013c-.005.009-.005.013,0,.014a.057.057,0,0,0,.033-.018.072.072,0,0,1,.048-.017.214.214,0,0,1,.106.04.2.2,0,0,0,.08.036.013.013,0,0,0,.01,0,.02.02,0,0,0,0-.017c0-.017-.006-.028,0-.034a.018.018,0,0,1,.015-.005,1.246,1.246,0,0,1,.214.057.9.9,0,0,0,.216.041H28.2l.021,0a.046.046,0,0,1,.033.011.017.017,0,0,1,0,.013c0,.019.024.044.061.057a.118.118,0,0,0,.039.008c.017,0,.028-.006.03-.016a.025.025,0,0,1,.027-.021.05.05,0,0,1,.018,0,.037.037,0,0,1,.025.022.025.025,0,0,1,0,.023.009.009,0,0,0,0,.01c.013.022.1.036.179.036.026,0,.088,0,.1-.021s.054-.03.121-.03a.8.8,0,0,1,.406.1.027.027,0,0,1,.008.021c0,.025.009.05.023.054H29.3a.011.011,0,0,0,.009,0,.037.037,0,0,0,0-.031.061.061,0,0,1,.006-.052.029.029,0,0,1,.023-.011.065.065,0,0,1,.052.041c.012.024.021.035.029.035s.013-.008.02-.026a.043.043,0,0,1,.045-.026.216.216,0,0,1,.081.021.233.233,0,0,0,.084.023c.012,0,.026,0,.027-.014s.01-.024.024-.024c.042,0,.117.072.131.136.008.041.024.07.039.07l.006,0a.055.055,0,0,0,.019-.056.039.039,0,0,1,0-.031.04.04,0,0,1,.026-.019h.01a.047.047,0,0,1,.043.037.031.031,0,0,0,.034.024.126.126,0,0,0,.053-.015.441.441,0,0,1,.178-.028c.1,0,.184.018.2.044a.108.108,0,0,1,.014.1.019.019,0,0,1-.017.011.038.038,0,0,1-.023-.01.046.046,0,0,0-.027-.012c-.015,0-.025.014-.03.041l-.009.051-.013.076a.058.058,0,0,1-.052.051h-.009a.342.342,0,0,0-.065-.01l-.107.008a.188.188,0,0,0-.136.057.062.062,0,0,0-.01.053.024.024,0,0,1,0,.019.023.023,0,0,1-.016.009ZM42.2,21.406a.035.035,0,0,1-.028-.01c-.012-.013-.011-.039-.007-.08s.021-.071.044-.071l.011,0a.088.088,0,0,0,.024.006s.005,0,.006,0,0-.015-.017-.038a.12.12,0,0,0-.083-.053.047.047,0,0,1-.035-.015.038.038,0,0,1-.01-.03c0-.012.013-.019.033-.019a.147.147,0,0,1,.057.014,1.041,1.041,0,0,0,.137.05l.027,0c.005,0,.008,0,.01,0s0-.017-.018-.042-.023-.038-.02-.043,0,0,.006,0a.093.093,0,0,1,.025.006l.017,0a.032.032,0,0,0,.034-.03.032.032,0,0,1,.033-.029l.014,0a.039.039,0,0,1,.025.022.025.025,0,0,1,0,.022.2.2,0,0,0,.027.123c.02.04.03.062.022.08s-.051.041-.152.08a.868.868,0,0,1-.17.055Zm-17.71-.052a.265.265,0,0,1-.1-.045.272.272,0,0,0-.107-.043.02.02,0,0,0-.023.02c0,.016-.018.025-.044.025a.17.17,0,0,1-.054-.01c-.041-.014-.067-.031-.073-.048a.026.026,0,0,1,0-.024c.006-.012.008-.019.006-.023a.007.007,0,0,0-.006,0,.109.109,0,0,0-.037.013.117.117,0,0,1-.039.014.008.008,0,0,1-.007,0c0-.006,0-.021.008-.041s.03-.052.042-.052h.008c.012,0,.022-.014.024-.035a.068.068,0,0,0-.005-.046.01.01,0,0,0-.008,0c-.019,0-.049.043-.075.107s-.043.1-.059.1-.027-.019-.053-.055a.181.181,0,0,1-.018-.161.178.178,0,0,0,.006-.1l0,0h0c-.015,0-.028-.017-.034-.041a.012.012,0,0,1,0-.01.045.045,0,0,1,.033-.009.458.458,0,0,1,.123.024c.153.046.168.06.184.161.012.077.06.138.092.138.015,0,.024-.013.027-.038a.036.036,0,0,0-.005-.027.011.011,0,0,0-.009,0l-.01,0-.007,0c-.008-.007-.008-.021,0-.044s.019-.031.033-.031a.038.038,0,0,1,.027.014c.01.011.018.016.023.016s.007-.015,0-.031a.04.04,0,0,1,.006-.035.065.065,0,0,1,.052-.019.26.26,0,0,1,.116.034.182.182,0,0,0,.081.019.106.106,0,0,0,.036-.005.1.1,0,0,1,.03-.009.006.006,0,0,1,.006,0c0,.007,0,.027-.026.069s-.03.063-.025.071a.011.011,0,0,0,.01,0l.02,0,.02,0a.01.01,0,0,1,.01,0c.005.008,0,.031-.024.071l-.042.082-.015-.1c-.011-.07-.034-.115-.061-.115s-.031.016-.043.047a.09.09,0,0,0-.006.059.01.01,0,0,0,.006.006c.011,0,.017.037.013.072S24.5,21.354,24.488,21.354Zm9.234-.225a.205.205,0,0,1-.2-.089.44.44,0,0,1-.075-.142c0-.024-.012-.045-.023-.045a.484.484,0,0,1-.084-.011c-.027-.005-.04-.012-.046-.022s0-.034,0-.064a.132.132,0,0,0,0-.1.02.02,0,0,0-.016-.009.049.049,0,0,0-.033.022c-.017.021-.025.026-.029.026s.006-.062.041-.127a.214.214,0,0,1,.156-.105c.047-.006.075-.012.081-.026s0-.029-.017-.053l0-.005c-.023-.04-.035-.06-.243-.06s-.605.019-1.4.058l-.1,0c-.045,0-.106,0-.175,0-.1,0-.217,0-.3-.007-.131-.008-.363-.014-.538-.014H30.63c-.167,0-.355,0-.448-.008l-.065,0a1.112,1.112,0,0,0-.231.02.431.431,0,0,1-.1.007,3.7,3.7,0,0,1-.425-.033c-.194-.024-.366-.041-.429-.041a.08.08,0,0,0-.023,0,.424.424,0,0,1-.083,0,6.722,6.722,0,0,1-.758-.052.312.312,0,0,1-.17-.086c-.058-.076-.193-.1-.8-.148-.125-.01-.248-.015-.356-.015a1.182,1.182,0,0,0-.261.019.52.52,0,0,1-.146.017,5.094,5.094,0,0,1-.632-.067c-.368-.052-.949-.118-1.3-.148l-.051,0a8.392,8.392,0,0,1-1.347-.192l-.059-.012a8.509,8.509,0,0,0-1.209-.166h-.074a.085.085,0,0,1,.035.057.013.013,0,0,1,0,.006.051.051,0,0,1,.007.022.011.011,0,0,1,0,.009.058.058,0,0,1-.04.009.916.916,0,0,1-.182-.029c-.124-.03-.5-.109-.837-.176s-.768-.163-.954-.211c-.484-.121-.747-.187-.974-.241a.059.059,0,0,1,.014.021,1.008,1.008,0,0,0,.264.1c.171.05.265.094.286.136s.021.038.027.038.009-.01.012-.033.005-.03.009-.03.006,0,.012.023a1.036,1.036,0,0,0,.367.18c.2.071.8.295,1.307.488.541.2,1.217.452,1.5.554a3.336,3.336,0,0,1,.54.222c0,.015.064.05.141.077a.45.45,0,0,0,.124.027c.015,0,.023,0,.024-.009a.024.024,0,0,1,.023-.023h.008a.018.018,0,0,1,.012.011.044.044,0,0,1-.005.036.034.034,0,0,0,0,.029.037.037,0,0,0,.023.022.057.057,0,0,1,.036.057.048.048,0,0,0,.023.051h.006a.01.01,0,0,0,.008,0,.044.044,0,0,0,0-.035.021.021,0,0,1,0-.018.03.03,0,0,1,.025-.008.151.151,0,0,1,.047.01c.042.015.06.026.061.036s-.005.014-.019.022-.027.02-.026.027.006.009.017.013.016.009.018.015-.007.024-.029.048a.114.114,0,0,1-.079.034.072.072,0,0,1-.022,0,.06.06,0,0,0-.021,0,.035.035,0,0,0-.037.03c0,.016-.01.019-.017.019a.071.071,0,0,1-.041-.022c-.017-.015-.029-.023-.036-.023l-.005,0s0,.012,0,.026a.076.076,0,0,1,0,.047c-.012,0-.024-.042-.03-.1l-.011-.094-.078.063A.126.126,0,0,1,23.13,21c-.013,0-.021-.008-.026-.026s-.011-.03-.018-.03-.014.008-.024.025-.016.012-.034.012a5.462,5.462,0,0,1-.932-.292c-.523-.184-1.154-.418-1.406-.522l-.331-.134-.621-.251a10.609,10.609,0,0,1-1.222-.519.575.575,0,0,0-.273-.163l-.011,0a.032.032,0,0,1-.017.005c-.017,0-.031-.015-.036-.04s-.012-.033-.019-.033-.016.01-.029.03-.019.026-.024.026,0-.007,0-.015c0-.023-.122-.081-.342-.158a1.138,1.138,0,0,0,.158-.617V5.648l5.45,10.275a1.144,1.144,0,0,0,1.025.725,1.11,1.11,0,0,0,1.025-.725l5.425-10.4V18.3a1.109,1.109,0,0,0,.225.725.825.825,0,0,0,.675.275.9.9,0,0,0,.7-.275,1.038,1.038,0,0,0,.25-.725V3.3c.055,0,.113,0,.179,0,.522,0,.879-.079.956-.211a.162.162,0,0,1,.123-.083h.006c.226.019.52.031.767.031.12,0,.219,0,.288-.008.086-.008.243-.014.348-.014A2.734,2.734,0,0,0,35.685,3c.071-.011.133-.02.143-.02a.268.268,0,0,1,.02.106c0,.052.016.086.029.086l.005,0h0c.022,0,.054.065.076.13.031.087.073.153.1.157s.026.007.03.013,0,.021-.011.046c-.02.041-.018.059.01.076s.03.038,0,.093-.027.075,0,.091a.1.1,0,0,1,.041.062.026.026,0,0,1,0,.018l-.006,0a.027.027,0,0,1-.016-.009.019.019,0,0,0-.011-.006c-.007.008,0,.028,0,.043a.074.074,0,0,1,0,.057.011.011,0,0,1-.01.005h-.006a.01.01,0,0,0-.009,0c-.006.009,0,.033.019.077s.025.066.018.076a.017.017,0,0,1-.015.006h-.023c-.007,0-.012,0-.013,0s0,.02.021.05a.057.057,0,0,0,.045.029.042.042,0,0,0,.032-.016.085.085,0,0,0,.013-.071.046.046,0,0,1,.023-.05l.007,0a.011.011,0,0,1,.008,0c.008.009.01.034.006.073a.122.122,0,0,0,.007.07l0,0a.035.035,0,0,1,.02-.006.131.131,0,0,1,.064.023c.019.013.027.021.026.028s-.025.017-.082.024-.112.036-.109.072a.05.05,0,0,1-.012.039A.041.041,0,0,1,36.1,4.4h-.012a.1.1,0,0,0-.078.068.287.287,0,0,1-.191.146.041.041,0,0,1-.017,0h-.012a.88.88,0,0,0-.162.028,1.893,1.893,0,0,1-.32.044c-.094,0-.174.021-.181.041s-.031.029-.061.029H35.06a.533.533,0,0,0-.214.092.607.607,0,0,1-.2.095h-.009a.056.056,0,0,0-.054.034.04.04,0,0,0,0,.032.024.024,0,0,0,.017.012c.021,0,.032.063.029.117s-.013.067-.027.067a.988.988,0,0,0-.144.035.364.364,0,0,1-.1.015.2.2,0,0,1-.081-.013.2.2,0,0,0-.084-.016.218.218,0,0,0-.068.01,1.787,1.787,0,0,1-.233.054c-.23.038-.345.076-.341.115a13.236,13.236,0,0,0,1.755.2h.015a.454.454,0,0,1,.317.074l.016.012c.048.035.093.068.1.071l.1.068a.22.22,0,0,0,.11.044.038.038,0,0,0,.016,0,.1.1,0,0,1,.03,0c.1,0,.428.03.779.071s.679.066.824.066a.357.357,0,0,0,.064,0,3.4,3.4,0,0,1,.445-.028,1.284,1.284,0,0,0,.374-.04.139.139,0,0,1,.071-.014.422.422,0,0,1,.114.017.434.434,0,0,0,.1.016c.018,0,.04,0,.043-.013a.022.022,0,0,1,.02-.016.028.028,0,0,1,.019.009.023.023,0,0,0,.014.008.008.008,0,0,0,.006,0,.03.03,0,0,0,0-.022.042.042,0,0,1,.005-.031.009.009,0,0,1,.007,0h.005a.115.115,0,0,0,.048.007.482.482,0,0,0,.223-.051.011.011,0,0,0,0-.008.016.016,0,0,1,.005-.012.382.382,0,0,1,.206-.05.225.225,0,0,1,.066.008l.014,0a.111.111,0,0,0,.085-.061c.023-.041.064-.074.09-.074s.088,0,.158.01l.054,0,.07,0a.753.753,0,0,0,.2-.022,1.266,1.266,0,0,1,.207-.042.112.112,0,0,0,.083-.032.016.016,0,0,0,0-.016c-.007-.016-.008-.027,0-.036.016-.025.091-.033.309-.033h.2a.038.038,0,0,0,.031-.013.03.03,0,0,0,.006-.026A.057.057,0,0,1,41,5.374a.39.39,0,0,0,.117-.078c.036-.036.109-.051.243-.051l.119,0c.166.007.329.019.364.026l.017,0a.241.241,0,0,0,.125-.043.134.134,0,0,1,.071-.027.029.029,0,0,1,.028.014.188.188,0,0,0,.1.086.007.007,0,0,0,.006,0s0-.01,0-.018-.012-.031-.009-.036h0c.018,0,.043.016.086.054a.925.925,0,0,0,.5.106c.169,0,.379-.027.412-.1.019-.045.018-.074,0-.086a.076.076,0,0,1-.032-.053.018.018,0,0,1,0-.015.013.013,0,0,1,.01,0,.047.047,0,0,1,.024.009.044.044,0,0,0,.025.008.031.031,0,0,0,.03-.023.027.027,0,0,0,0-.026.114.114,0,0,0-.089-.027.249.249,0,0,0-.134.036.5.5,0,0,1-.19.06l-.043.005-.124.015h-.007A.047.047,0,0,1,42.6,5.16c0-.038-.038-.055-.12-.057-.06,0-.084,0-.088-.014s0-.012.016-.023A.066.066,0,0,0,42.436,5a.015.015,0,0,1,0-.015c.017-.027.128-.041.32-.041h.1c.165,0,.22.018.242.064.011.023.019.035.023.035s0-.005,0-.026a.034.034,0,0,1,.008-.027.06.06,0,0,1,.045-.015.24.24,0,0,1,.173.088c.021.028.039.045.048.045a.009.009,0,0,0,0-.01.007.007,0,0,1,0-.006.05.05,0,0,1,.033-.007.913.913,0,0,1,.19.033c.125.032.322.081.437.109a1.285,1.285,0,0,1,.3.11.327.327,0,0,0,.148.05h.029a.078.078,0,0,1,.072.036c.005.011.007.018.006.021h0s-.009,0-.022-.015-.02-.016-.022-.016,0,.01,0,.023a.535.535,0,0,0,.316.147c.092.018.112.037.121.111a.085.085,0,0,1-.009.066c-.018.021-.064.027-.159.031h-.069a.957.957,0,0,1-.179-.012l-.069-.018.077.069a1.044,1.044,0,0,0,.506.237,2.5,2.5,0,0,1,.42.148,2.983,2.983,0,0,0,.917.173c.078,0,.121-.009.127-.026a.033.033,0,0,1,.029-.026.034.034,0,0,1,.023.011,1.522,1.522,0,0,0,.491.1c.026,0,.04,0,.044-.008V6.427c-.005-.011-.008-.018,0-.023s.017-.009.043-.009c.047,0,.144.009.3.023.121.01.213.016.324.016s.232-.006.408-.015l.056,0a.436.436,0,0,1,.324.12c.016.015.026.027.026.042s-.026.049-.081.1a.479.479,0,0,1-.314.106,4.645,4.645,0,0,0-.655.077c-.063.013-.09.025-.1.044a.076.076,0,0,0,0,.06c.011.039.029.063.048.063l.01,0a.029.029,0,0,1,.013,0c.015,0,.025.013.027.032a.035.035,0,0,1-.008.027.037.037,0,0,1-.028.012h-.025c-.008,0-.012,0-.013,0s0,.014.028.038.028.029.024.038,0,0-.009,0h-.007a.013.013,0,0,0-.01.005.069.069,0,0,0,0,.055c.014.044-.009.08-.078.121l-.1.056.271.06c.148.033.343.068.435.078a1.411,1.411,0,0,1,.164.022.45.45,0,0,1-.034.071l-.012.022c-.021.038-.04.064-.047.064s-.006-.011-.01-.011a.108.108,0,0,0-.052.032.607.607,0,0,1-.256.072,1.446,1.446,0,0,0-.3.063.51.51,0,0,1-.174.033h-.029l-.042,0a.771.771,0,0,0-.392.1c0,.006.006.011.021.015a.722.722,0,0,1,.082.033l.045.02.047.021c.035.016.054.035.053.054s-.014.027-.037.035a.343.343,0,0,0-.119.11.181.181,0,0,1-.118.082h-.016a.092.092,0,0,0-.078.045.039.039,0,0,0,0,.035c.009.021.044.038.139.066s.2.061.246.078a2.475,2.475,0,0,0,.52.076.1.1,0,0,0,.045-.006.214.214,0,0,1,.1-.015c.1,0,.247.018.25.042a.134.134,0,0,1-.035.078A.156.156,0,0,0,48,8.869c0,.015.005.024.011.024s.006,0,.009-.007a.011.011,0,0,1,.011-.006.072.072,0,0,1,.045.033c.013.016.025.025.032.025a.012.012,0,0,0,.006-.013.031.031,0,0,1,.008-.024.033.033,0,0,1,.025-.01c.028,0,.043.011.046.023s-.024.047-.075.076-.059.041-.058.058.041.053.148.1.145.088.145.131c0,.026-.02.05-.058.069a1.822,1.822,0,0,1-.533.052,3.161,3.161,0,0,1-.386-.021,2.136,2.136,0,0,0-.259-.02.313.313,0,0,0-.065,0l-.07.017.086.107A.365.365,0,0,0,47.2,9.6a.08.08,0,0,1,.057.036.171.171,0,0,1,.007.136.5.5,0,0,1-.335.239H46.9a.042.042,0,0,0-.036.014.021.021,0,0,0,0,.021.1.1,0,0,0,.071.05c.047.006.107.116.1.187a.019.019,0,0,0,.006.014.261.261,0,0,0,.154.029c.128,0,.278-.027.3-.069a1.879,1.879,0,0,1,.637-.088.37.37,0,0,1,.145.016l.069.046-.06.042a2.289,2.289,0,0,1-.493.094c-.265.032-.411.068-.411.1,0,.014.029.035.165.053a.351.351,0,0,1,.2.083c.034.042.074.054.18.054.036,0,.08,0,.134,0a4.793,4.793,0,0,0,.69-.059.065.065,0,0,1,.02,0,.021.021,0,0,1,.016.006.069.069,0,0,1,.009.048c0,.072-.083.147-.209.2-.037.016-.055.034-.051.052s.052.043.115.043l.047,0,.235-.027.121-.013-.09.134a.844.844,0,0,0-.089.149.65.65,0,0,0,.174.066c.224.066.352.177.362.311a.061.061,0,0,1-.02.046.455.455,0,0,1-.3.093h-.019a2.345,2.345,0,0,0-.331.033,2.541,2.541,0,0,1-.366.029h-.109a2.461,2.461,0,0,0-.281.016,3.757,3.757,0,0,0-.7.111.006.006,0,0,0,0,.005c0,.015.044.045.1.075s.13.085.132.115c.006.068-.262.183-.5.216a.328.328,0,0,0-.231.1.318.318,0,0,1-.2.1c-.092.015-.135.035-.141.063s.048.092.186.182c.049.032.087.08.083.105a.229.229,0,0,1-.186.123h-.019a.027.027,0,0,0-.024.01.027.027,0,0,0,0,.026.428.428,0,0,0,.225.071c.125.016.207.047.212.079,0,.014-.009.027-.034.04-.007,0-.01.007-.009.01a.8.8,0,0,0,.316.037,1.484,1.484,0,0,0,.209-.013.98.98,0,0,1,.146-.012c.15,0,.234.05.243.146,0,.057-.063.123-.246.245-.146.1-.215.156-.218.19a.02.02,0,0,0,.006.017.05.05,0,0,1,.019.045c-.007.032-.063.066-.187.113-.251.1-.438.282-.4.4a.052.052,0,0,1,0,.048c-.03.045-.151.069-.479.1a1.671,1.671,0,0,0-.451.083.51.51,0,0,1-.212.059,1.748,1.748,0,0,0-.634.161.18.18,0,0,1-.115.041h-.041a.253.253,0,0,0-.11.022c-.017.009-.024.016-.023.021s.023.016.081.027c.236.044.363.1.4.16a.089.089,0,0,0,.076.054.085.085,0,0,0,.023,0,.207.207,0,0,1,.039-.009c0,.009-.01.019-.022.03a.11.11,0,0,1-.07.026.07.07,0,0,1-.024,0,.087.087,0,0,0-.031-.005.08.08,0,0,0-.052.017.033.033,0,0,1-.022.007.143.143,0,0,1-.083-.041c-.035-.03-.057-.043-.077-.043a.066.066,0,0,0-.044.021.069.069,0,0,1-.041.019.03.03,0,0,1-.028-.02.3.3,0,0,0-.176-.065.515.515,0,0,1-.229-.09c-.053-.048-.083-.07-.1-.07a.011.011,0,0,0-.009,0,.042.042,0,0,0,0,.03.053.053,0,0,0,.047.047.038.038,0,0,1,.027.017.028.028,0,0,1,0,.024c-.006.019.016.049.048.065a.091.091,0,0,1,.052.082c-.007.05-.114.067-.411.067h-.163c-.243,0-.332.008-.354.033a.02.02,0,0,0-.005.016.055.055,0,0,0,.044.044c.023,0,.045.042.049.087a.081.081,0,0,1-.011.062.044.044,0,0,1-.034.012h-.034c-.025,0-.042.009-.046.025s.01.045.052.065a1.416,1.416,0,0,0,.309.039c.417.021.58.054.674.136a.252.252,0,0,0,.1.064h0l0,0c.011,0,.015.054.015.1,0,.136.04.164.321.212.113.02.154.029.157.044s-.01.018-.029.031a1.518,1.518,0,0,1-.6.114h-.078a.344.344,0,0,0-.209.049.133.133,0,0,1-.087.05c-.03,0-.058-.021-.091-.069a.255.255,0,0,0-.162-.081,3.635,3.635,0,0,0-.368-.013,4.758,4.758,0,0,0-.684.034c-.092.03-.095.036-.063.173a.321.321,0,0,1,.009.182c-.017.025-.014.056.011.1s.031.068.021.085-.039.027-.091.027a2.145,2.145,0,0,1-.337-.045,2.243,2.243,0,0,0-.356-.048.192.192,0,0,0-.112.026,1.251,1.251,0,0,1-.45.061c-.041,0-.079,0-.114,0h-.012a1.631,1.631,0,0,0-.176.015l-.134.019.126.046a2.26,2.26,0,0,0,.454.069c.17.012.432.038.576.062a2.9,2.9,0,0,0,.386.022c.072,0,.141,0,.2-.006.173-.011.359-.017.523-.017a3.176,3.176,0,0,1,.391.018.319.319,0,0,0,.044,0c.04,0,.07-.008.075-.021s.043-.029.084-.029h.028a.1.1,0,0,0,.065-.017A.016.016,0,0,0,44,17a.011.011,0,0,1,0-.009.018.018,0,0,1,.013,0A.1.1,0,0,1,44.06,17a.147.147,0,0,0,.04.017s0-.009-.02-.032-.031-.035-.028-.041.005,0,.013,0h.025a.038.038,0,0,0,.028-.012.037.037,0,0,0,.009-.028.017.017,0,0,1,0-.013.008.008,0,0,1,.006,0c.012,0,.034.016.061.045.048.049.081.076.092.076s0-.017,0-.034a.031.031,0,0,1,0-.027.051.051,0,0,1,.035-.025l.017,0a.037.037,0,0,1,.04.035c0,.028.046.053.107.061l.036,0a.066.066,0,0,0,.052-.016.027.027,0,0,0,0-.024.026.026,0,0,1,0-.023.03.03,0,0,1,.024-.008.236.236,0,0,1,.065.014c.114.036.237.149.244.223,0,.015,0,.023.009.023s.009-.005.017-.03.013-.025.015-.025.012.024.017.083a.378.378,0,0,1-.041.248.039.039,0,0,1-.029.015h-.01a.02.02,0,0,0-.018.008.031.031,0,0,0,0,.03.029.029,0,0,1,0,.028.029.029,0,0,1-.026.011H44.81a.225.225,0,0,0-.168.063.094.094,0,0,1-.064.021c-.055,0-.118-.03-.122-.074,0-.006,0-.007.007-.007a.062.062,0,0,1,.03.012.028.028,0,0,0,.016,0,.072.072,0,0,0,.055-.045c.014-.028.023-.046.02-.05s-.013,0-.024.014a.041.041,0,0,1-.02.011c-.009-.007-.008-.025,0-.055a.134.134,0,0,0-.025-.11.122.122,0,0,0-.064-.042.007.007,0,0,0-.007,0c0,.007.005.022.023.041s.018.025.016.028,0,0-.009,0a.293.293,0,0,1-.069-.017.266.266,0,0,0-.084-.014.105.105,0,0,0-.07.019.065.065,0,0,1-.04.019c-.016,0-.031-.011-.051-.036s-.028-.03-.036-.03-.016.013-.023.046a.338.338,0,0,0-.008.1.022.022,0,0,1,0,.019.025.025,0,0,1-.02.008h-.008a.046.046,0,0,0-.045.041c0,.025-.043.046-.086.048a.127.127,0,0,0-.105.061c-.009.021-.022.034-.034.034a.019.019,0,0,1-.015-.009s-.007-.007-.008-.007,0,.014.007.048a.087.087,0,0,1,0,.064.01.01,0,0,1-.008,0c-.012,0-.033-.021-.049-.068-.01-.029-.017-.043-.026-.043s-.021.014-.04.042-.033.042-.039.042-.01-.018-.014-.057-.006-.054-.011-.054-.01.013-.017.033c-.032.087-.024.108.051.145a.138.138,0,0,1,.039.211.156.156,0,0,1-.114.044.233.233,0,0,1-.05-.006.265.265,0,0,0-.056-.006.147.147,0,0,0-.108.038.072.072,0,0,0-.019.056.035.035,0,0,1-.04.045.262.262,0,0,1-.058-.009.5.5,0,0,0-.115-.012.469.469,0,0,0-.242.053c-.015.012-.021.019-.02.025s.012.011.037.016.123.028.194.047a2.662,2.662,0,0,0,.585.09.435.435,0,0,0,.071,0,.347.347,0,0,1,.055-.006c.018,0,.028,0,.033.01a.024.024,0,0,1,0,.022c0,.013,0,.022,0,.027a.01.01,0,0,0,.009,0,.037.037,0,0,0,.015,0h.006c.023,0,.059.042.089.1s.045.1.038.122a.017.017,0,0,1-.01.01.018.018,0,0,0-.012.012c0,.013.008.033.034.065s.035.043.033.048h0a.181.181,0,0,1-.06-.016A.189.189,0,0,0,43.9,18.8l-.005,0s0,0,.008.008c.031.024.045.047.039.065s-.031.027-.07.027l-.036,0c-.069-.009-.112-.034-.114-.067,0-.013,0-.027-.008-.027s-.011.016-.016.029-.013.028-.021.028-.013-.007-.018-.019a.052.052,0,0,0-.049-.036.209.209,0,0,0-.089.032.258.258,0,0,1-.108.02l-.033,0h-.018c-.052,0-.081.024-.082.048s.017.045.071.052a.125.125,0,0,1,.1.075c.008.023.008.039,0,.048a.027.027,0,0,1-.023.009h-.017a.068.068,0,0,0-.063.042.206.206,0,0,1-.14.119.027.027,0,0,1-.02-.007.025.025,0,0,0-.017-.008c-.01,0-.019.008-.023.021s-.035.03-.07.03H43.04a.789.789,0,0,0-.2.038c-.073.024-.109.039-.111.055s.012.022.032.035a2.635,2.635,0,0,0,.511.1,2.107,2.107,0,0,1,.488.092.046.046,0,0,0,.03.014.026.026,0,0,0,.024-.02c0-.011.049-.017.13-.017a2.774,2.774,0,0,1,.763.093.039.039,0,0,0,.036.021.052.052,0,0,0,.021,0c.013-.006.021-.013.022-.022s0-.019-.015-.03-.007-.01-.006-.014.014-.01.031-.01l.025,0c.045.005.085.028.087.05s.007.014.011.014.019-.008.03-.021a.059.059,0,0,1,.041-.025.021.021,0,0,1,.018.009c.012.018-.005.063-.04.1l-.061.068.067-.011.039,0s.007,0,.007,0-.007.009-.031.024a.181.181,0,0,1-.094.023.3.3,0,0,1-.193-.074.172.172,0,0,0-.107-.049.059.059,0,0,0-.045.017.06.06,0,0,0-.013.047.023.023,0,0,1-.005.019.1.1,0,0,1-.072.017.762.762,0,0,1-.1-.008c-.112-.014-.18-.039-.183-.068,0-.009,0-.014-.007-.014s-.016.012-.025.032c-.019.041-.082.058-.217.058H43.87c-.068,0-.153,0-.233.011a.055.055,0,0,1,.02.038c0,.013-.013.02-.03.02a.08.08,0,0,1-.025,0,.074.074,0,0,1-.047-.044l-.064.011a1.317,1.317,0,0,1-.235.029H43.21a.858.858,0,0,0-.2.03c-.041.012-.072.021-.072.029a1.032,1.032,0,0,0,.307.036l.078.006c.168.013.312.023.333.027h.033c.082,0,.317,0,.59-.014.179-.006.372-.009.53-.009.118,0,.2,0,.248.005l.071,0c.061,0,.1-.006.109-.016a0,0,0,0,0,0-.005.008.008,0,0,1,0-.008c.005-.008.025-.013.054-.013a.362.362,0,0,1,.049,0,.766.766,0,0,0,.087,0,2.73,2.73,0,0,0,.273-.015,3.161,3.161,0,0,1,.316-.013,1.555,1.555,0,0,1,.39.027s0,0-.006.006a.029.029,0,0,0-.015.017.048.048,0,0,0,0,.036.018.018,0,0,1,0,.018.05.05,0,0,1-.042.014h-.026a.309.309,0,0,0-.157.057c-.047.035-.112.079-.14.1a10.251,10.251,0,0,1-1.25.178c-.389.041-.675.063-.806.063h-.028c-.138,0-.447.005-.691.011s-.592.01-.782.01h-.075a1.818,1.818,0,0,0-.417.039.348.348,0,0,1-.1.021.049.049,0,0,1-.051-.028,1.116,1.116,0,0,0-.514-.063l-.141,0h-.024c-.071,0-.215,0-.342-.008l-.116,0a4.408,4.408,0,0,0-.784.07.407.407,0,0,1-.084.009.1.1,0,0,1-.058-.012.238.238,0,0,0-.093-.009c-.081,0-.2.007-.327.019-.142.014-.229.019-.292.019a.235.235,0,0,1-.167-.041.167.167,0,0,0-.122-.038,1.587,1.587,0,0,0-.238.028l-1.175.194c-.112.018-.282.05-.381.07a1.129,1.129,0,0,1-.217.025l-.037,0-.028,0a.588.588,0,0,0-.181.033,5.2,5.2,0,0,1-.954.122c-.311.028-.377.035-.7.086-.146.021-.387.054-.537.072l-.148.017-.2.023A2.214,2.214,0,0,1,33.722,21.128Zm8.255-3.156c-.026,0-.056,0-.088,0a.622.622,0,0,0-.23.059.015.015,0,0,0-.006.016c.009.035.139.082.29.105a.557.557,0,0,0,.09.008.544.544,0,0,0,.242-.061.722.722,0,0,1,.217-.072H42.5l.021,0c.009,0,.014,0,.016,0s0-.015-.023-.034a.088.088,0,0,0-.052-.029.015.015,0,0,0-.011,0,.013.013,0,0,1-.008,0c-.008,0-.014-.01-.015-.025,0-.037.055-.055.259-.081.051-.006.095-.036.1-.068s.009-.033.016-.033.022.014.041.037.029.034.034.034,0-.017-.009-.043-.009-.041,0-.049a.021.021,0,0,1,.018-.007l.023,0a.173.173,0,0,0,.04,0,.432.432,0,0,0,.108-.015.188.188,0,0,1,.053-.009.1.1,0,0,1,.078.038c.014.017.026.028.034.028a.013.013,0,0,0,.006-.014.039.039,0,0,1,.014-.027.466.466,0,0,1,.244-.112H43.5a.034.034,0,0,0,.026-.011.048.048,0,0,0,.01-.038c0-.042-.042-.059-.148-.063l-.059,0a.724.724,0,0,0-.151.012,1.523,1.523,0,0,1-.255.029,1.341,1.341,0,0,0-.283.04c-.051.017-.088.027-.092.027a.007.007,0,0,0-.007,0,1.054,1.054,0,0,0-.264.1c-.071.038-.107.075-.1.106s.037.043.095.05.1.031.1.075a.037.037,0,0,1-.01.029.137.137,0,0,1-.1.025.983.983,0,0,1-.214-.031A.3.3,0,0,0,41.977,17.973ZM25.376,21a1.583,1.583,0,0,1-.3-.088,3.21,3.21,0,0,0-.406-.12.073.073,0,0,1-.069-.042c-.006-.022-.047-.049-.092-.059-.062-.015-.089-.038-.087-.053s.019-.019.046-.019a.255.255,0,0,1,.048.005.144.144,0,0,1,.089.039.009.009,0,0,1,0,.009c-.008.014-.011.025-.008.03a.008.008,0,0,0,.008,0,.12.12,0,0,0,.063-.043.1.1,0,0,1,.076-.031.107.107,0,0,1,.106.073c0,.02.016.031.034.031a.083.083,0,0,0,.034-.009.084.084,0,0,1,.036-.009.053.053,0,0,1,.048.026.065.065,0,0,1,0,.066c-.007.013-.01.02-.008.023h0a.044.044,0,0,0,.021-.008.142.142,0,0,1,.061-.009.754.754,0,0,1,.126.012c.115.022.155.047.184.115.009.024.014.04.009.049a.018.018,0,0,1-.014.007ZM16.048,18.35h0c-.214-.037-.449-.083-.56-.111a3.773,3.773,0,0,0-.428-.08,4.161,4.161,0,0,1-.47-.1c-.156-.044-.646-.135-1.093-.2a7.87,7.87,0,0,1-.938-.183,2.369,2.369,0,0,0-.343-.107c-.125-.029-.259-.065-.306-.083a5.089,5.089,0,0,0-.794-.189,10.246,10.246,0,0,1-1.124-.274c-.075-.022-.181-.051-.236-.065l-.306-.078-.429-.108a1.435,1.435,0,0,1-.237-.069,1.189,1.189,0,0,0-.173-.059,1.141,1.141,0,0,1-.2-.074,1.434,1.434,0,0,0-.285-.073c-.369-.068-.369-.068-.374-.134,0-.033-.019-.063-.034-.065h0c-.006,0-.009,0-.011,0a.051.051,0,0,0,.005.042c.008.015.01.025.008.028h0a.056.056,0,0,1-.031-.012.318.318,0,0,0-.11-.041c-.042-.006-.065-.035-.072-.09s-.007-.068,0-.075h0c.015,0,.032.017.063.062s.063.071.086.071a.019.019,0,0,0,.016-.008.075.075,0,0,0,0-.061.11.11,0,0,1-.008-.042s.009.01.014.017c.019.033.1.049.244.05a2.685,2.685,0,0,1,.815.145c.141.042.331.1.417.121a1.271,1.271,0,0,1,.187.062.021.021,0,0,0,.011,0c.015,0,.028-.018.032-.044s.016-.039.037-.039a.156.156,0,0,1,.061.018,2.665,2.665,0,0,0,.43.139,1.244,1.244,0,0,1,.213.071,6.856,6.856,0,0,0,.89.124,2.269,2.269,0,0,1,.719.169,3.94,3.94,0,0,0,.729.123c.017,0,.027,0,.029,0s-.083-.054-.19-.085-.214-.066-.244-.078a7.819,7.819,0,0,0-1.25-.317.7.7,0,0,1-.224-.067,7.3,7.3,0,0,0-.917-.227H9.655a1.777,1.777,0,0,1-.227-.051c-.183-.049-.633-.157-.742-.178A.044.044,0,0,1,8.65,16.1a.058.058,0,0,1,.019-.058.107.107,0,0,1,.053-.008,1.983,1.983,0,0,1,.368.052.218.218,0,0,1,.131.081c.018.038.057.052.146.052h.04a.764.764,0,0,0,.177-.021h0c.02,0,.045.028.063.054s.037.042.049.042a.01.01,0,0,0,.01-.008c0-.005.016-.008.041-.008a3.239,3.239,0,0,1,.69.126,1.537,1.537,0,0,0,.21.062.447.447,0,0,1,.177.08c.028.024.042.034.051.034l.006,0s0-.013,0-.03a.038.038,0,0,1,.01-.03.094.094,0,0,1,.07-.024,3.633,3.633,0,0,1,.766.107,1.077,1.077,0,0,0,.2.04c.012,0,.019,0,.021-.006s0-.007-.006-.012c-.029-.03-.04-.055-.032-.074s.051-.037.114-.037a1.2,1.2,0,0,1,.319.058,1.424,1.424,0,0,0,.388.086c.021,0,.042,0,.066,0l.033,0a.4.4,0,0,1,.162.033,6.154,6.154,0,0,0,1.013.27,4.091,4.091,0,0,1,.415.088c.106.031.309.078.444.107s.471.109.762.182c.116.029.261.064.409.1V18.3q0,.026,0,.05Zm0-1.3h0l-.122-.028c-.293-.066-.54-.126-.573-.141s-.315-.079-.625-.142c-.568-.115-.95-.2-1.238-.266-.082-.02-.36-.081-.638-.142-.262-.056-.5-.116-.527-.13s-.068-.041-.1-.062a.612.612,0,0,0-.164-.063.243.243,0,0,1-.144-.1c-.028-.054-.1-.079-.354-.121a1.53,1.53,0,0,1-.347-.083.983.983,0,0,0-.238-.079c-.552-.137-1.092-.259-1.344-.3-.151-.027-.474-.108-.721-.18s-.559-.151-.694-.175c-.96-.18-1.707-.343-2.1-.46-.138-.04-.378-.1-.536-.136a.93.93,0,0,1-.3-.1.014.014,0,0,1,0-.014.063.063,0,0,1,.05-.015h.022c.05,0,.126.009.168.01s.083.016.091.033.019.013.041.013a.276.276,0,0,0,.071-.011.264.264,0,0,1,.071-.008.819.819,0,0,1,.208.03c.1.028.625.116,1.172.2.567.085,1.2.188,1.445.235a3.488,3.488,0,0,0,.418.064c.012,0,.018,0,.019,0a.475.475,0,0,0-.16-.058.618.618,0,0,1-.164-.064.021.021,0,0,1,0-.022.218.218,0,0,1,.154-.075c.051,0,.087-.019.088-.038s-.017-.025-.05-.032-.237-.053-.428-.1-.58-.125-.864-.176c-.452-.081-.5-.1-.509-.162-.008-.091-.119-.127-.789-.254a2.354,2.354,0,0,1-.508-.13.222.222,0,0,0-.138-.052c-.089-.012-.141-.037-.142-.069s.092-.092.238-.123a.844.844,0,0,1,.156-.015.378.378,0,0,1,.075.006.951.951,0,0,0,.173.026c.022,0,.033,0,.034-.01,0-.026-.142-.089-.346-.151-.162-.049-.371-.106-.472-.13s-.3-.078-.431-.118-.392-.1-.583-.144c-.236-.05-.356-.091-.377-.13a.478.478,0,0,0-.227-.109.516.516,0,0,1-.227-.107.542.542,0,0,0-.235-.108.762.762,0,0,1-.27-.122.75.75,0,0,0-.328-.122,2.068,2.068,0,0,1-.653-.194.01.01,0,0,1,0-.011c.013-.021.092-.035.157-.035a.161.161,0,0,1,.1.02.028.028,0,0,0,.017.009.008.008,0,0,0,.006,0,.022.022,0,0,0,0-.017c0-.021-.046-.056-.1-.079s-.1-.055-.1-.083.014-.034.042-.047.026-.019.026-.032c0-.051-.134-.131-.362-.219-.206-.08-.329-.152-.325-.174,0,0,.008-.007.02-.007h.028c.011,0,.018,0,.018-.006,0-.022-.138-.09-.261-.125a.612.612,0,0,1-.216-.095.7.7,0,0,0-.213-.108c-.138-.051-.208-.091-.2-.115s.06-.032.168-.032H.915a.291.291,0,0,0,.2-.055.084.084,0,0,1,.077-.035.79.79,0,0,1,.182.035,1.645,1.645,0,0,0,.352.072.111.111,0,0,0,.119-.074.2.2,0,0,0,.025-.117.564.564,0,0,0-.2-.084.723.723,0,0,1-.219-.09.529.529,0,0,0-.162-.082c-.086-.03-.136-.06-.132-.08s.031-.022.081-.022a.87.87,0,0,1,.112.009,1.2,1.2,0,0,0,.146.011c.043,0,.069,0,.074-.012s.048-.011.073-.011a1.48,1.48,0,0,1,.18.014,1.235,1.235,0,0,0,.153.013c.058,0,.086-.01.09-.031s-.027-.054-.1-.064a.786.786,0,0,1-.205-.066,2.226,2.226,0,0,0-.334-.107.837.837,0,0,1-.269-.1.058.058,0,0,0-.038-.026.011.011,0,0,0-.01.005.016.016,0,0,1-.014.005.147.147,0,0,1-.067-.026C1.016,10.012,1.009,10,1.011,10s.046-.018.147-.018A1.3,1.3,0,0,0,1.625,9.9c.012-.005.018-.012.018-.019,0-.032-.119-.084-.38-.169a1.13,1.13,0,0,1-.288-.116C.974,9.583.9,9.567.8,9.564.652,9.558.617,9.545.613,9.5a.213.213,0,0,1,.058-.142A.089.089,0,0,1,.73,9.32H.735c.016,0,.023.005.025.01s0,.014-.023.03-.024.024-.022.03S.729,9.4.749,9.4H.755a.06.06,0,0,0,.053-.055c0-.025.017-.039.065-.039a1.748,1.748,0,0,1,.267.041,1.659,1.659,0,0,0,.287.04c.047,0,.075-.009.085-.026s0-.044-.02-.083a1.47,1.47,0,0,0-.862-.5C.452,8.754.354,8.692.346,8.6a.036.036,0,0,1,.007-.029.082.082,0,0,1,.06-.015,1.066,1.066,0,0,1,.14.014,1.232,1.232,0,0,1,.327.086,3.937,3.937,0,0,0,.637.146,4.084,4.084,0,0,0,.458.065A.076.076,0,0,0,2.03,8.85.061.061,0,0,0,2.039,8.8a.168.168,0,0,0-.1-.162l-.269-.108A7.635,7.635,0,0,0,.461,8.148C.176,8.083.041,8.03.008,7.971a.062.062,0,0,1,0-.053A.022.022,0,0,1,.025,7.9a.027.027,0,0,1,.019.01.02.02,0,0,0,.012.006l0,0a.045.045,0,0,0,0-.032.043.043,0,0,1,.006-.036.026.026,0,0,1,.021-.009H.1l.017,0A.019.019,0,0,0,.13,7.835a.018.018,0,0,0,0-.017.014.014,0,0,1,0-.013A.112.112,0,0,1,.2,7.77a.111.111,0,0,0,.09-.051c.018-.036.008-.091-.03-.165S.223,7.447.241,7.411a.08.08,0,0,0,0-.074A.09.09,0,0,0,.175,7.3c-.031,0-.051-.015-.051-.023A.8.8,0,0,0,.1,7.181c-.007-.021-.01-.036,0-.044s.013-.009.027-.009a1.151,1.151,0,0,1,.2.039c.137.034.295.078.352.1a.243.243,0,0,0,.073.019.026.026,0,0,0,.02-.007A.049.049,0,0,0,.771,7.24a.118.118,0,0,1,.036-.094.1.1,0,0,0,.023-.081A.391.391,0,0,0,.725,6.8C.692,6.778.677,6.767.679,6.762s.007,0,.02,0H.739c.011,0,.016,0,.017,0S.744,6.741.713,6.719C.7,6.708.694,6.7.7,6.7s.025-.013.068-.013.124.005.247.017l.037,0a.187.187,0,0,0,.138-.045.073.073,0,0,0,.02-.057.045.045,0,0,1,.01-.035.056.056,0,0,1,.043-.015h.017l.045,0a.378.378,0,0,0,.091-.009c.028-.008.041-.013.043-.022s-.008-.025-.036-.057a.256.256,0,0,0-.13-.073.941.941,0,0,1-.268-.179.867.867,0,0,0-.284-.18A1.155,1.155,0,0,1,.318,5.9a.007.007,0,0,1,0-.006.018.018,0,0,0,0-.016A.042.042,0,0,0,.28,5.863c-.025,0-.053-.033-.062-.072a.142.142,0,0,1,.038-.113A.212.212,0,0,1,.4,5.593a.078.078,0,0,1,.03.005.088.088,0,0,0,.03.006C.483,5.6.5,5.594.5,5.578s.045-.031.115-.031a.891.891,0,0,1,.344.069,3.908,3.908,0,0,0,.63.133A3.944,3.944,0,0,0,2.06,5.8c.034,0,.052,0,.053-.011s-.025-.027-.079-.05l-.023-.01c-.05-.022-.123-.054-.181-.081a1.11,1.11,0,0,0-.244-.076c-.064-.01-.119-.036-.122-.059a.055.055,0,0,0-.046-.047.279.279,0,0,1-.1-.059c-.03-.026-.045-.039-.044-.051s.016-.022.045-.042.057-.051.056-.081c0-.052-.063-.113-.19-.187a.548.548,0,0,1-.2-.168A.273.273,0,0,0,.936,4.8a.1.1,0,0,1-.011-.1c.009-.022.023-.035.038-.035a.031.031,0,0,1,.017.006.07.07,0,0,0,.027.014s0-.005,0-.011.009-.07.041-.122A.163.163,0,0,1,1.2,4.457h.061c.037,0,.064-.005.069-.014a.006.006,0,0,0,0-.006s.006-.007.024-.007a1.407,1.407,0,0,1,.228.033A1.187,1.187,0,0,0,1.8,4.5a.094.094,0,0,0,.086-.034c.019-.027.083-.043.171-.043a.721.721,0,0,1,.287.056A.167.167,0,0,0,2.41,4.5a.035.035,0,0,0,.036-.021.067.067,0,0,1,.065-.034h.015l.031,0a.139.139,0,0,0,.1-.032.048.048,0,0,0,.014-.037.051.051,0,0,0-.043-.041c-.022,0-.053-.034-.069-.07a.677.677,0,0,0-.294-.176c-.321-.133-.571-.308-.556-.391,0-.022.017-.037.033-.037a.032.032,0,0,1,.018.006.041.041,0,0,0,.02.009.006.006,0,0,0,.005,0s0-.01,0-.018A.273.273,0,0,1,1.823,3.5c.035-.067.06-.094.089-.094a.062.062,0,0,1,.03.009.075.075,0,0,0,.033.013.008.008,0,0,0,.007,0s0-.008,0-.015a.015.015,0,0,1,0-.015c.007-.011.03-.017.06-.017h.038a1.286,1.286,0,0,0,.26-.037l.187-.045-.069-.106c-.035-.053-.08-.107-.1-.109A.574.574,0,0,1,2.236,3c-.1-.077-.1-.083-.067-.169.021-.056.023-.1,0-.119a.072.072,0,0,1-.016-.069c0-.01.008-.016.014-.016s.018.012.029.034.022.034.031.034.011-.005.016-.016a.3.3,0,0,1,.094-.087l.077-.048-.087-.026A.161.161,0,0,1,2.212,2.4a.046.046,0,0,1,.027-.049.072.072,0,0,1,.027-.005.038.038,0,0,1,.031.012.012.012,0,0,0,.011,0A.2.2,0,0,0,2.4,2.314a.49.49,0,0,1,.186-.081.219.219,0,0,0,.135-.066c.018-.028.031-.042.056-.042a.9.9,0,0,1,.268.112.635.635,0,0,0,.251.088.161.161,0,0,0,.133-.086c.024-.034.041-.051.073-.051a.458.458,0,0,1,.142.043,1.642,1.642,0,0,0,.468.1c.032,0,.05,0,.055-.012a.009.009,0,0,0,0-.009A.687.687,0,0,0,3.943,2.2c-.215-.082-.288-.113-.292-.139,0-.008,0-.015.015-.025a.026.026,0,0,0,.008-.027c-.019-.087-.36-.274-.663-.363a.5.5,0,0,1-.19-.085.227.227,0,0,1,.032-.136c.045-.1.045-.109,0-.182a.417.417,0,0,1-.053-.1c.005-.009.014-.011.028-.011a1.975,1.975,0,0,1,.6.19A1.9,1.9,0,0,0,4.1,1.55c.025,0,.04,0,.046-.013a.083.083,0,0,0-.008-.1c-.033-.056-.08-.084-.458-.279-.119-.062-.18-.113-.183-.154A.037.037,0,0,1,3.5.976.04.04,0,0,1,3.53.967.818.818,0,0,1,3.694,1a.75.75,0,0,0,.172.031c.028,0,.044-.006.048-.017a.039.039,0,0,0,0-.033A.023.023,0,0,0,3.894.969.028.028,0,0,1,3.871.958a.011.011,0,0,1,0-.012s0,0,.008,0a1.586,1.586,0,0,1,.45.2,2.013,2.013,0,0,0,.527.188.04.04,0,0,0,.031-.013A.05.05,0,0,0,4.9,1.282a.46.46,0,0,1,0-.105A2.738,2.738,0,0,0,3.982.772a1.256,1.256,0,0,1-.266-.13A.525.525,0,0,0,3.525.555.5.5,0,0,1,3.24.412a.018.018,0,0,1,0-.018C3.248.382,3.315.38,3.354.38c.07,0,.16.005.253.014.167.017.308.029.336.029h.006S3.886.374,3.8.316s-.117-.082-.118-.1S3.7.191,3.717.177a.1.1,0,0,1,.06-.02A.372.372,0,0,1,3.915.2a.656.656,0,0,0,.171.064A.019.019,0,0,0,4.1.256s.006-.013,0-.027S4.064.175,4.018.153c-.068-.03-.1-.058-.1-.078s.03-.023.075-.023a.627.627,0,0,1,.079.006.646.646,0,0,0,.088.006A.323.323,0,0,0,4.327.029.179.179,0,0,1,4.419,0a.1.1,0,0,1,.052.013A10.559,10.559,0,0,0,5.8.214c.016,0,.024,0,.026,0a.024.024,0,0,1,0-.022c.009-.013.037-.02.083-.02a1.9,1.9,0,0,1,.553.125A8.332,8.332,0,0,0,7.978.743a4.791,4.791,0,0,1,.637.146c.17.055.456.137.636.183a3.492,3.492,0,0,1,.363.1,1.184,1.184,0,0,0,.226.073c.115.03.252.067.307.084.115.035.629.145.981.211.264.048.669.14.942.212.09.023.445.089.786.143s.746.132.9.17.568.107.931.153c.286.036.47.057.569.057.066,0,.1-.009.105-.032s.015-.035.022-.035.017.015.029.039a.083.083,0,0,0,.082.05l.027,0,.023,0a.114.114,0,0,1,.089.037.249.249,0,0,0,.125.07.632.632,0,0,1,.149.052,1.222,1.222,0,0,0,.143.067V17.05ZM2.772,11.178h0a.055.055,0,0,0,0,.028.764.764,0,0,0,.283.119,1.949,1.949,0,0,0,.356.091c.012,0,.019,0,.021-.007s0-.014-.01-.028a1.1,1.1,0,0,0-.335-.121c-.167-.042-.307-.08-.311-.083Zm-.246-.644h0a.065.065,0,0,0,0,.027.639.639,0,0,0,.233.112,3.035,3.035,0,0,1,.3.114.1.1,0,0,0,.043.017.009.009,0,0,0,.008,0s0-.01,0-.018a.818.818,0,0,0-.267-.128c-.141-.049-.259-.092-.275-.1l-.026-.015-.01-.006Zm21.895,3.789v0L18.537,3.039l.986.127.123.016c.612.078,1.164.163,1.256.192a.8.8,0,0,0,.189.035.069.069,0,0,0,.028,0,.217.217,0,0,1,.06,0c.206,0,.907.054,1.154.093A.4.4,0,0,0,22.4,3.5c.13,0,.261-.062.281-.133.009-.03-.006-.058-.042-.08a.019.019,0,0,1-.01-.016c0-.014.013-.033.038-.05a.249.249,0,0,0,.077-.077c.013-.037.09-.053.159-.053a.272.272,0,0,1,.165.042.651.651,0,0,0,.33.078c.149.012.63.06,1.052.1.38.04.729.069.829.069l.027,0a.3.3,0,0,1,.06,0c.068,0,.177.007.283.018a1.707,1.707,0,0,0,.184.011.335.335,0,0,0,.146-.019.742.742,0,0,1,.294-.063.121.121,0,0,1,.049.007.334.334,0,0,0,.145.028.481.481,0,0,0,.093-.009.545.545,0,0,1,.1-.009.246.246,0,0,1,.052,0l.086.022.026.007a.684.684,0,0,0,.12.006c.057,0,.126,0,.193-.005s.127,0,.189,0a1.487,1.487,0,0,1,.186.008.448.448,0,0,0,.053,0,.148.148,0,0,0,.1-.021.3.3,0,0,1,.161-.057c.032,0,.043.014.047.058s.023.067.144.067h.065c.109,0,.386.021.63.047a4.373,4.373,0,0,0,.447.028.787.787,0,0,0,.135-.008c.073-.014.144-.026.156-.026s0-.018-.024-.065a.2.2,0,0,0-.133-.078c-.045-.006-.094-.019-.094-.03a.727.727,0,0,0-.024-.085c-.011-.032-.007-.047,0-.054a.019.019,0,0,1,.016-.007c.022,0,.062.026.1.084.024.035.039.05.048.05s.01-.007.013-.022.011-.03.021-.03a.02.02,0,0,1,.013.006.026.026,0,0,0,.016.009l.005,0a.017.017,0,0,0,0-.013.018.018,0,0,1,.005-.015.066.066,0,0,1,.047-.015h.006c.032,0,.218,0,.415,0,.068,0,.163,0,.274.009L24.422,14.322Zm3.715-10.5c-.041,0-.086,0-.129.007a.54.54,0,0,0-.1.017c-.058.017-.081.028-.082.039s.008.014.028.024a10.653,10.653,0,0,0,1.408.1c.007,0,.011,0,.011,0A10.6,10.6,0,0,0,28.2,3.824Z" transform="translate(140.368 37.211)" fill="#e4064a" stroke="rgba(0,0,0,0)" stroke-miterlimit="10" stroke-width="1"/>
  </g>
</svg>
