<svg xmlns="http://www.w3.org/2000/svg" viewBox="0 0 201.11 37.03"><defs><style>.cls-1{fill:#e31b4c;}.cls-2{isolation:isolate;}</style></defs><title>Layer 1</title><g id="Layer_2" data-name="Layer 2"><g id="Layer_1-2" data-name="Layer 1"><g id="Group_4" data-name="Group 4"><path id="Intersection_1" data-name="Intersection 1" class="cls-1" d="M64.21,36.23h0a.2.2,0,0,1,.06-.23h.07s0,0,0-.05a.2.2,0,0,0-.13-.09.06.06,0,0,1-.06-.05h0s0,0,0,0a.19.19,0,0,1,.1,0l.2.09h.06v0l0,0a.09.09,0,0,1,0-.06h.08a.05.05,0,0,0,0,0,0,0,0,0,1,0,0h0l0,0v0a.29.29,0,0,0,0,.13l0,.06,0,.09h0c0,.06,0,.08-.25.15l-.27.07ZM45.13,37h0a.14.14,0,0,1-.08-.13c0-.06,0-.07,0,0a.15.15,0,0,1-.2,0,.13.13,0,0,1-.06-.07c0-.07,0-.09,0-.05v.05a.07.07,0,0,1,0,0h0l0,0a.34.34,0,0,0-.12-.09s0-.16-.14-.29-.06,0-.08.13h0a.06.06,0,0,0,.06,0h.07s0,0-.07,0a.41.41,0,0,1-.22,0,2.74,2.74,0,0,0-.39-.09,16.34,16.34,0,0,1-1.67-.37l-.53-.14-1.17-.34-.65-.19a3.34,3.34,0,0,1-1-.39,1.73,1.73,0,0,0-.21-.17c-.09-.07-.15-.14-.15-.17h0a.52.52,0,0,1,.13-.17.25.25,0,0,1,.14-.08.48.48,0,0,1,.18,0,.49.49,0,0,0,.16.05s0,0,0,0h0s-.14-.13-.31-.2a.78.78,0,0,1-.37-.27v0s0,0,0,0h0a1.78,1.78,0,0,1,.55.18h0a.68.68,0,0,0,.26.12,2.3,2.3,0,0,1,.5.24.76.76,0,0,0,.23.13h0l.18,0a.93.93,0,0,0,.29,0,.17.17,0,0,1,.16.09,1.29,1.29,0,0,0,.42.26.94.94,0,0,1,.35.21v0h0s0,0,0,0l.06,0a.29.29,0,0,1,.18.07.27.27,0,0,0,.12.06h0v0h0v0s0,0,0,0h0a2.13,2.13,0,0,1,.33.11,1.05,1.05,0,0,0,.35.08h0l.06,0h0s0,.07.09.09h.07l0,0s0,0,0,0h0a.05.05,0,0,1,0,0s0,0,0,0,0,0,0,0h0a.57.57,0,0,0,.34.07c.06,0,0,0,.2-.06a1.46,1.46,0,0,1,.7.18s0,0,0,0h0v0a.06.06,0,0,0,0,.06h0a0,0,0,0,0,0,0h0s0,0,0,0a0,0,0,0,1,0,0l0,0s.1.21.16.09a.07.07,0,0,1,.06,0,.28.28,0,0,1,.13,0,.39.39,0,0,0,.14,0c.14-.08,0-.12.27.16,0,.07,0,.11,0,.11h0a.07.07,0,0,0,0-.08h0v-.05l0,0h0a.07.07,0,0,1,.07.06.05.05,0,0,0,.07,0l.07,0,.16,0c.17,0,.39,0,.42.09a.19.19,0,0,1,0,.13h0v0h0s0,0,0,0-.07,0-.09,0l0,.19a.1.1,0,0,1-.1.08h0l-.11,0h-.16c-.13,0-.22,0-.23.12v0h0a0,0,0,0,1,0,0h0ZM67,34.88c-.24,0-.43,0-2.4-.1a2.64,2.64,0,0,0-.69,0c-.15,0-.21,0-.23,0a2.21,2.21,0,0,0-1-.15l-.57,0a7.26,7.26,0,0,0-1.4,0,.42.42,0,0,1-.22,0,2.85,2.85,0,0,0-.65,0c-.61,0,.16-.06-1.26-.11l-1.84.2c-.18,0-.45,0-.59.08a1.35,1.35,0,0,1-.4,0,.93.93,0,0,0-.33,0,8.21,8.21,0,0,1-1.48.12,10,10,0,0,0-1.09.07l-.84.07-.54,0a1.38,1.38,0,0,0,.65-.43,1.71,1.71,0,0,0,.35-1.21L51.14,7.53V7.44a4.84,4.84,0,0,0,.76,0c.46,0,.77-.11.86-.25a.26.26,0,0,1,.18-.12h0a11.18,11.18,0,0,0,1.63.12h.54a4.82,4.82,0,0,0,.71,0h0a.59.59,0,0,1,0,.13v.1s0,0,0,.07h0s.07.08.1.2,0,0,.19.28h0s0,0,0,.06a.09.09,0,0,0,0,.07.07.07,0,0,0,0,.05s0,0,0,0a.3.3,0,0,1,0,.1.16.16,0,0,0,0,.09.05.05,0,0,0,0,0,.12.12,0,0,1,.05.1h0s-.05,0-.06,0a.06.06,0,0,0,0,0v.08l0,0h0a.27.27,0,0,0,0,.12.19.19,0,0,1,0,.08c0,.08-.15,0,0,.12a.08.08,0,0,0,.07.05l0,0a.12.12,0,0,0,0-.1h0a.13.13,0,0,1,0-.07h0a.17.17,0,0,1,0,.1V9a.08.08,0,0,0,0,.07h0l.1,0c0,.06.09,0-.09.08s-.18,0-.18.1a.07.07,0,0,1,0,.08h0a.14.14,0,0,0-.14.1c0,.11-.26.24-.33.2a.61.61,0,0,0-.27,0,2.89,2.89,0,0,1-.5,0c-.14,0,0,0-.4.08a.83.83,0,0,0-.34.13,1,1,0,0,1-.32.13.09.09,0,0,0-.1.05v0h0a0,0,0,0,0,0,0s0,0,0,.09,0,.2-.05.2l-.22,0a.48.48,0,0,1-.29,0,.33.33,0,0,0-.24,0,2.25,2.25,0,0,1-.36.06c-.35,0-.54.09-.54.15h0a20.55,20.55,0,0,0,2.7.45.79.79,0,0,1,.51.15l.32.25a.28.28,0,0,0,.17.07h0c.09,0,.63.07,1.24.17a10.18,10.18,0,0,0,1.35.18h0a4.89,4.89,0,0,1,.68,0h.39l.2,0h.06A.78.78,0,0,1,60,12a.58.58,0,0,0,.19,0h0s0,0,0,0l0,0s0,0,0,0h0s0-.05,0-.05h0a.25.25,0,0,0,.15,0c.18,0-.1,0,.52-.15a.58.58,0,0,1,.19,0h0a.18.18,0,0,0,.13-.08.22.22,0,0,1,.14-.11h0l.33,0h.27l.15,0,.31-.05h0a.17.17,0,0,0,.12,0v0h0v0c.28-.07,0,0,.78,0h0l0,0s0,0,0,0h0a.11.11,0,0,1,.08-.08.52.52,0,0,0,.19-.11.36.36,0,0,1,.2-.06,2.17,2.17,0,0,1,.36,0,4.23,4.23,0,0,1,.56.07h0a.27.27,0,0,0,.17-.06l.1,0s0,0,0,0a.28.28,0,0,0,.15.14h0v0s0,0,0,0h0s.06,0,.13.09a1.73,1.73,0,0,0,1,.21c.23,0,.37-.06.4-.13a.14.14,0,0,0,0-.09.08.08,0,0,0,0,0,.12.12,0,0,1,0-.08s0,0,0,0h0a.05.05,0,0,0,0,0s0,0,0,0v0c0-.07-.23-.09-.35,0a.84.84,0,0,1-.3.08l-.26,0a.08.08,0,0,1-.08-.08h0c0-.06-.06-.08-.18-.09s-.13,0-.1-.06a.12.12,0,0,0,0-.09v0h0s.07,0,.17,0a4,4,0,0,1,.49,0c.25,0,.34.05.37.12s0,.07.1,0a.39.39,0,0,1,.28.16s0,.09.11,0a1.65,1.65,0,0,1,.32.06l.67.21a1.79,1.79,0,0,1,.45.19.54.54,0,0,0,.24.09h0a.13.13,0,0,1,.12.06,0,0,0,0,1,0,0h0l0,0s0,0,0,0v0a.83.83,0,0,0,.47.25c.14,0,.17.07.18.18h0c0,.12,0,.14-.27.13a1.58,1.58,0,0,1-.38,0l-.1,0h0l.11.12a1.71,1.71,0,0,0,.76.41,3.58,3.58,0,0,1,.64.26,4.62,4.62,0,0,0,1.51.35.14.14,0,0,0,.1,0,0,0,0,0,1,0,0l0,0a2.4,2.4,0,0,0,.79.19h0a0,0,0,0,1,0,0h0l.51.06a5.32,5.32,0,0,0,1.13.06.73.73,0,0,1,.58.22.16.16,0,0,1,0,.07h0s0,.07-.14.14a.72.72,0,0,1-.49.13,8.74,8.74,0,0,0-1,.07c-.12,0-.17,0-.17.09a.08.08,0,0,0,0,.07c0,.06,0,.1.07.1h0s0,0,0,0,0,0,0,0a.06.06,0,0,1,0,.06h-.07l0,.06a.1.1,0,0,1,0,0s0,0,0,0a.06.06,0,0,0,0,.06v0c0,.06,0,.1-.14.15l-.16.08h0l.42.12a6.58,6.58,0,0,0,.67.15l.25,0a1.16,1.16,0,0,1-.16.24h0s0,0-.09,0a1,1,0,0,1-.4.09,2,2,0,0,0-.48.08.85.85,0,0,1-.32,0,1.24,1.24,0,0,0-.68.11.05.05,0,0,0,0,0l.12.06.14.07a.16.16,0,0,1,.07.07h0s0,.06,0,.07a.53.53,0,0,0-.2.16.27.27,0,0,1-.2.12.14.14,0,0,0-.14.06s0,0,0,0h0a2.28,2.28,0,0,0,.58.26,4.12,4.12,0,0,0,.84.15h.1a1.25,1.25,0,0,1,.47.07h0a.14.14,0,0,1-.06.12.24.24,0,0,0,0,.14h0s0,0,0,0a0,0,0,0,0,0,0h0s.1.13.13.07,0-.05,0-.05h0a.09.09,0,0,1,.06,0s0,.07-.12.12-.09.05-.1.08h0s.06.08.22.16a.59.59,0,0,1,.18.13h0c.06.07,0,.14-.06.18a4.57,4.57,0,0,1-1.43,0,1.67,1.67,0,0,0-.5,0l-.11,0h0l.12.17a.61.61,0,0,0,.2.19.1.1,0,0,1,.08.06s0,0,0,0h0a.25.25,0,0,1,0,.12.73.73,0,0,1-.55.34q-.08,0-.09,0h0a.15.15,0,0,0,.11.08c.06,0,.14.16.14.27s0,0,0,0h0s0,0,0,0a.79.79,0,0,0,.4,0c.13,0,.28,0,.3-.08a1.15,1.15,0,0,1,.49-.08,2.18,2.18,0,0,1,.72,0l.1.07-.09.06a3.34,3.34,0,0,1-.76.12,2.1,2.1,0,0,0-.61.09h0s0,0,0,0,.08.06.25.1a.5.5,0,0,1,.31.14c.06.09.14.1.48.1s.69,0,.87,0l.21,0h0s0,0,0,0h0s0,0,0,.05-.13.22-.34.29c0,0-.08.05-.08.07h0s.09.08.23.07h.54l-.14.2a1.07,1.07,0,0,0-.15.22h0a1.23,1.23,0,0,0,.26.12c.33.11.52.29.53.49s0,0-.52.2a4.53,4.53,0,0,0-.52,0,4.42,4.42,0,0,1-.63,0,4.87,4.87,0,0,0-.54,0,6.61,6.61,0,0,0-1.09.12h0A.44.44,0,0,0,73,22c.11.06.2.14.2.19s-.42.26-.8.29a.54.54,0,0,0-.36.14.48.48,0,0,1-.32.13c-.17.1-.41,0,0,.39a.26.26,0,0,1,.12.15h0a.05.05,0,0,1,0,0,.23.23,0,0,1-.07.07.37.37,0,0,1-.23.07s0,0,0,0v0a.71.71,0,0,0,.34.13c.2,0,.32.09.32.14h0s0,0,0,.05h0a1.93,1.93,0,0,0,.75.08H73a.62.62,0,0,1,.44.09.2.2,0,0,1,.06.15c0,.09-.1.19-.4.36a1.1,1.1,0,0,0-.35.26h0v0a.09.09,0,0,1,0,.07c0,.05-.1.1-.3.16-.37.12-.66.37-.66.55a.06.06,0,0,0,0,0h0c0,.12-.15.15-.77.17a2.8,2.8,0,0,0-.7.09.76.76,0,0,1-.33.08,2.77,2.77,0,0,0-1,.19.27.27,0,0,1-.21.06.3.3,0,0,0-.21,0c-.05,0-.08,0,.08.08.36.08.56.17.61.28a.12.12,0,0,0,.12.09h.08s0,0,0,0a.16.16,0,0,1-.15,0,.12.12,0,0,0-.13,0s-.1,0-.16-.06-.11,0-.28-.05a.47.47,0,0,0-.27-.12.73.73,0,0,1-.35-.15c-.13-.14-.17-.15-.17-.07h0a.08.08,0,0,0,.07.08s0,0,0,0a0,0,0,0,1,0,0v0a.16.16,0,0,0,.07.09.14.14,0,0,1,.08.09h0v0c0,.08-.2.09-.79.06s-.67,0-.67,0h0s0,.07.07.07.06.07.07.14h0a.08.08,0,0,1,0,0h0c0,.06-.08,0-.19.1a.11.11,0,0,0,.08.08,1.86,1.86,0,0,0,.47.09c.64.07.9.13,1,.27a.4.4,0,0,0,.15.1h0s0,0,0,.08,0,0,0,.13.09.21.48.3c.07.05.22,0,.2.13a2.49,2.49,0,0,1-1,.12.58.58,0,0,0-.37.05c-.12.11-.19.1-.28,0a.37.37,0,0,0-.24-.14,9.87,9.87,0,0,0-1.63-.05c-.1,0-.14,0-.13.12a.68.68,0,0,0,0,.14c0,.05,0,.09,0,.14a.32.32,0,0,1,0,.14.08.08,0,0,0,0,.07.11.11,0,0,0,0,.08.23.23,0,0,1,0,.11c0,.12-.63-.11-1.39-.11a2.38,2.38,0,0,1-.88.05,1.41,1.41,0,0,0-.29,0H62.8l.19.09a4.13,4.13,0,0,0,.7.14l.88.14a5.5,5.5,0,0,0,.91.08,8.33,8.33,0,0,1,1.41.07H67c.06,0,0,0,.18-.06s0,0,0,0h.06s.07,0,.07,0h0s0,0,0,0l.07,0,.06,0h0s0,0,0-.05a.21.21,0,0,1,0-.06h.06a.06.06,0,0,0,.06-.05h0s0,0,.1,0,.12.13.14.13h0s0,0,0,0h0v0a.07.07,0,0,1,0,0h0s0,0,.05,0a.05.05,0,0,1,0,0s.07.08.16.1h.08l.06,0a0,0,0,0,0,0,0h0s0,0,0,0v0h0a.2.2,0,0,1,.11,0c.18.06.36.25.36.36v0h0l0,0c0-.06,0-.08,0,.08h0v0h0a.91.91,0,0,1,0,.23h0c0,.08-.06.13-.11.13s0,0,0,0h0v0h0s0,.05,0,.05a.38.38,0,0,0-.31.08.21.21,0,0,1-.28-.08h0v0s0,0,0,0l0,0h0a.13.13,0,0,0,.09-.07c0-.07.07-.06,0-.06s0,0,0-.06a.2.2,0,0,0,0-.13s0,0,0-.05-.15-.11-.07,0a.05.05,0,0,1,0,0s0,0-.12,0a.29.29,0,0,0-.24,0c0,.08-.12-.14-.23,0a.68.68,0,0,0,0,.14h0v0h0s0,0,0,0a.09.09,0,0,0-.08.06h0s-.07.07-.13.07a.21.21,0,0,0-.17.08c0,.08-.09,0-.09.09v0a.07.07,0,0,1,0,0h0c0,.07-.06.05-.09-.07s-.12.12-.18,0h0v-.08s0,0,0,.05,0,.12,0,.16l.09.06.06.05a.3.3,0,0,1,0,.1h0V31c0,.11-.38.17-.77.34a.81.81,0,0,0-.55,0c0,.11,0,0,.32.15a3.7,3.7,0,0,0,1,.19h0a.23.23,0,0,1,.14,0h0v0s0,0,0,0h0s.09.07.13.17a1,1,0,0,1,0,.16s0,0,0,.1a.25.25,0,0,0,0,.07l0,.07h0s-.18-.08-.17,0a.18.18,0,0,1,0,.07c0,.12-.35,0-.44,0s-.08-.08-.21,0a.41.41,0,0,1-.22,0c-.12,0-.18,0-.15.1a.17.17,0,0,0,.1.06.2.2,0,0,1,.15.12v0h0s0,0-.06,0a.12.12,0,0,0-.12.06c0,.1-.21.21-.25.16s0,0-.21.05a1.32,1.32,0,0,0-.34,0c-.14,0-.19.06-.18.09h0l0,0a3.07,3.07,0,0,0,.78.19,3.75,3.75,0,0,1,.75.19l0,0a0,0,0,0,0,0,0h.07a4.13,4.13,0,0,1,1.31.21.09.09,0,0,0,.07,0h0l0,0v0h0l0,0s0,0,0,0h.08a.17.17,0,0,1,.14.08h0a.05.05,0,0,0,0,0,.07.07,0,0,1,.06,0s0,0,0,0h0a.21.21,0,0,1-.07.14l-.1.1h.15s0,0,0,0a.39.39,0,0,1-.43-.1c-.12-.12-.26-.12-.26,0h0c0,.07,0,0-.27,0s0-.1-.33-.09c0,.07-.15.09-.41.07h-.39a.09.09,0,0,1,0,.06s0,0-.09,0a.09.09,0,0,1-.06-.06h-.1a1.82,1.82,0,0,1-.4,0,1,1,0,0,0-.35,0c-.07,0-.11,0-.11,0h0a1.85,1.85,0,0,0,.47.08,9.14,9.14,0,0,0,1.6.11c.5,0,1,0,1.21.06H69s.07,0,.07,0h0l0,0h.11a3.39,3.39,0,0,0,.55,0h0a5,5,0,0,1,1.09.08h0a0,0,0,0,0,0,0h0v0h0s0,0-.1,0a.42.42,0,0,0-.27.07l-.22.14a16,16,0,0,1-1.95.17,12.39,12.39,0,0,1-1.24,0Zm1.26-1s0,.15.09,0a.08.08,0,0,0-.05-.07h0a0,0,0,0,0,0,.05Zm-1-.12a.35.35,0,0,0-.06.09c0,.07.08,0,.1-.06S67.32,33.67,67.25,33.76Zm-.48,0c0,.08.09.18,0-.09h0s0,0,0,.09ZM64.27,33c0,.09.39,0,.2-.07a.67.67,0,0,1-.2,0l-.1,0Zm-.72-.1s.16,0,0,0h0s0,0,0,0Zm.87-.66c-.06,0-.08,0,0,.06s.08,0,.1,0,0,0,0,0ZM63.63,31c0,.05.21.14.44.19l.22,0a1,1,0,0,0,.3-.08,1.35,1.35,0,0,1,.33-.09H65A.1.1,0,0,0,65,31c0-.05,0,0-.13-.08h0c0-.06.09-.08.41-.1.08.05.16-.29.3,0h0s0,0,0-.07a.08.08,0,0,0,0,0h0a0,0,0,0,1,0,0h.35a.13.13,0,0,1,.14.06c.13,0,0,0,.45-.17h.06s0,0,0-.08h0c0-.06-.06-.09-.22-.11a1.22,1.22,0,0,0-.33,0l-.4,0a2.17,2.17,0,0,0-.44,0l-.15,0h0a1,1,0,0,0-.42.12s-.31.13,0,.24.33.2-.35.13a.47.47,0,0,0-.17,0H64a1,1,0,0,0-.35.07,0,0,0,0,0,0,0Zm4.83-.73a.06.06,0,0,0,0,.06s.13.05,0-.07Zm.13,0a.11.11,0,0,0,.08.08c.08.06-.06-.23-.09-.08Zm-.91-.37s0,.12.1,0a.05.05,0,0,0,0-.06h0a.05.05,0,0,0,0,0ZM62,29s.16,0,0,0h0s0,0,0,0Zm3.24-.64c-.08,0-.08,0,0,.06s.22,0,.08-.09l-.12,0Zm6.63-9.26c-.11.06.59.16.19-.07H72c-.09,0-.12,0-.12.07ZM71.45,19s0,.06.1.08.15,0,.15,0-.08-.09-.15-.08a.2.2,0,0,0-.11,0Zm-.32-.13c0,.11.19.17.19.07a.13.13,0,0,0-.11-.11h0s-.06,0,0,0Zm.43-.06s.16,0,0,0h0s0,0,0,0Zm1-3.26h0c.11,0,.19,0,.19-.07h0s0,0-.06,0a.16.16,0,0,1-.12-.09l-.05-.06h0l-.08,0a.14.14,0,0,0-.06.14h0c0,.09,0,.1.18.1Zm1-.11s.16,0,0,0h0s0,0,0,0Zm-.5,0c-.08,0-.09,0,0,.05a.32.32,0,0,0,.17,0c.07,0,0-.06,0,0l-.12,0Zm-4-2.53c.12.1.22.08.21,0s0,0-.06,0a.3.3,0,0,1-.16,0H69s0,0,.07.07Zm-1.61-.55s.31.1.11-.07h0C67.45,12.28,67.41,12.31,67.41,12.34Zm1.1-.39s-.12.05,0,.08a0,0,0,0,0,.06,0v0s0,0,0,0h0Zm-3.11-.31c-.09,0,.35.15.13,0h0a.11.11,0,0,0-.09,0ZM56,7.78a.3.3,0,0,0-.05.15c0,.07,0,.08.08,0A.14.14,0,0,0,56,7.82s0-.1-.09,0ZM37,34.8H37a.15.15,0,0,1-.1-.15h0s0,0,0,0h0s0,0,0,0v0h0v0h0v0H37a.17.17,0,0,1,.1,0l.06,0h0s0,0-.06.07a.34.34,0,0,1-.12,0Zm0-.1h0v-.16c0-.19-.1-.25-.16-.11a.64.64,0,0,0,0,.07v0h0s0,0,0,0v.06c0,.08-.05.07-.2,0s.05,0-.36,0c-.06,0-.1,0-.1-.07h0v0c0-.06,0,0-.13,0h0s0,0,0-.05.05-.08.07-.08h0a0,0,0,0,0,0,0v-.05c0-.08-.08,0-.14.12s-.09.19-.18.07a.21.21,0,0,1,0-.11.59.59,0,0,1,0-.14.35.35,0,0,0,0-.14s0,0,0,0h0s0,0,0,0h0a.65.65,0,0,1,.2,0c.23.09.25.11.27.27s0,.22.18.17v0h0s0,0-.06,0a.13.13,0,0,1,0-.06s0,0,.05,0,0,0,0,0l0,0h0v0h0s0,0,0,0a.07.07,0,0,1,.06,0,.37.37,0,0,1,.21.06.23.23,0,0,0,.14,0h.09a.24.24,0,0,1,0,.1c0,.06,0,.09,0,.11h.09a.42.42,0,0,1,0,.1ZM36,34.15a0,0,0,0,0,0,.07h0s.05,0,.05,0,0,0,0-.07h0a.07.07,0,0,0-.05,0Zm12.14-.37c-.39,0-.9-.07-2.4-.17a2.37,2.37,0,0,0-.46,0,4.26,4.26,0,0,1-.8-.08,4.07,4.07,0,0,0-.7-.1,9.56,9.56,0,0,1-1.3-.14.54.54,0,0,1-.25-.15c-.09-.12-.29-.17-1.23-.29a3.87,3.87,0,0,0-1,0,3.5,3.5,0,0,1-1.2-.14c-.54-.1-1.43-.25-2-.33a14.31,14.31,0,0,1-2.24-.44,13.14,13.14,0,0,0-1.85-.36H32.6a.19.19,0,0,1,0,.09h0c0,.06,0,0-.35,0s-.52-.12-2.74-.75l-1.48-.45L27.22,14,37,30.35a1.86,1.86,0,0,0,1.74,1.1,1.82,1.82,0,0,0,1.62-1.27l8-17.49,1.09,20.92a1.09,1.09,0,0,0,0,.18H48.09Zm-9.89.45h0l-.43-.16a5.65,5.65,0,0,0-.62-.22.12.12,0,0,1-.1-.07s-.07-.08-.14-.1-.13-.06-.13-.09h0l0,0h.1a.24.24,0,0,1,.13.07h0s0,0,0,0h0a.21.21,0,0,0,.1-.06.13.13,0,0,1,.1,0,.17.17,0,0,1,.18.12,0,0,0,0,0,.05.05h.09a.08.08,0,0,1,.09,0h0s0,0,0,0h0l0,0,0,0h.09l.24,0c.18,0,.24.09.27.19a.14.14,0,0,1,0,.06h0s0,0,0,0h0Zm-3.2,0A.21.21,0,0,1,35,34v-.15l-.13.09c-.48,0,.14.1-1.68-.51-.72-.33-.59-.2-3.57-1.6l-1.47-.7,0-.74s0,0,0,0h0a1.44,1.44,0,0,0,.4.18.8.8,0,0,1,.43.23c0,.15,0-.09.09,0a1.61,1.61,0,0,0,.56.31l2,.86,2.27,1a5.07,5.07,0,0,1,.82.38h0s.09.08.21.13a.83.83,0,0,0,.21.06s0,0,0,0a0,0,0,0,1,0,0h0a0,0,0,0,1,0,0v.1l0,0a.16.16,0,0,1,.06.08h0v0a.06.06,0,0,0,0,.06h0a0,0,0,0,0,0,0h0v0h0v0h0l.09,0,.09.06h0l0,0s-.07,0,0,.06l0,0s0,0,0,.08a.18.18,0,0,1-.16,0,.57.57,0,0,1-.25,0h0s0,.07,0,.07Zm-.29-.57c0,.06,0,.1,0,.09a.1.1,0,0,0,0-.14l0,0h0s0,0,0,.08Zm-9.76-4-.06,0-.39-.09-.32-.07c-.38-.08-.86-.21-1.06-.26a4.77,4.77,0,0,0-.65-.17,5.42,5.42,0,0,1-.72-.19c-.24-.08-1-.26-1.68-.41A12,12,0,0,1,18.64,28a4.76,4.76,0,0,0-.53-.19l-.46-.15a7.42,7.42,0,0,0-1.22-.36,16.8,16.8,0,0,1-1.71-.51l-.36-.12-.47-.15-.65-.2a2.32,2.32,0,0,1-.37-.13,1.17,1.17,0,0,0-.26-.1A2.12,2.12,0,0,1,12.3,26a2.13,2.13,0,0,0-.43-.13c-.53-.21,0,.16-.62-.34h0s0,.05,0,.06a0,0,0,0,1,0,0s0,0-.05,0a.53.53,0,0,0-.17-.08.14.14,0,0,1-.11-.14h0c0-.07,0-.1,0-.11h0s0,.1.22.22h0a.09.09,0,0,0,0,0h0v-.08s0,0,0,0v0c0,.05.15.08.38.1a3.86,3.86,0,0,1,1.25.29l.63.22.29.11h0s0-.06.1-.13l.1,0a4.73,4.73,0,0,0,.66.25,1.75,1.75,0,0,1,.32.12,10.7,10.7,0,0,0,1.37.27,3.56,3.56,0,0,1,1.1.32,5.52,5.52,0,0,0,1.14.25s0,0,0,0h0a4.7,4.7,0,0,0-.66-.28A11.42,11.42,0,0,0,16,26.31a1.06,1.06,0,0,1-.34-.12,10,10,0,0,0-1.41-.43l-.34-.1-1.14-.34a.08.08,0,0,1,0,0h0a.08.08,0,0,1,0-.09h0a3.12,3.12,0,0,1,.61.11.3.3,0,0,1,.19.14c0,.07.1.1.29.1h.28s.05.09.16.16h.05a4.56,4.56,0,0,1,1.09.26l.32.11a.59.59,0,0,1,.27.14c.12.07,0,.05.19-.07h0a6.55,6.55,0,0,1,1.17.23,1.32,1.32,0,0,0,.33.08h0s0,0,0,0a.16.16,0,0,1-.05-.09h0v0h0s.06,0,.12,0a1.69,1.69,0,0,1,.55.12,1.56,1.56,0,0,0,.7.16.63.63,0,0,1,.3.07A9.34,9.34,0,0,0,21,27c.21.05.42.1.63.17l1.84.54c.41.13,1,.31,1.39.4h.05L25,29.59Zm-13.36-4s.15,0,0,0h0S11.56,25.57,11.59,25.59Zm27,2.05L27.17,8.24a1.87,1.87,0,0,0-1.7-1.1,1.63,1.63,0,0,0-1.21.53,1.73,1.73,0,0,0-.38,1.27l1,18.63c-.3-.1-.66-.2-.94-.28-.59-.16-.24-.1-1.83-.54l-1.9-.51a12.82,12.82,0,0,1-1.93-.62.71.71,0,0,0-.25-.11.41.41,0,0,1-.21-.16c0-.09-.15-.13-.54-.22a2.46,2.46,0,0,1-.53-.15,1.44,1.44,0,0,0-.36-.15c-.83-.25-1.67-.49-2.05-.58s-.46-.15-2.16-.66c-1.45-.35-2.61-.67-3.22-.89l-.82-.25a1.66,1.66,0,0,1-.46-.19h0l.06,0h.06a1.49,1.49,0,0,1,.5.11h.12a1.59,1.59,0,0,1,.38.07c.16.05,1,.23,1.8.41s1.83.38,2.22.48a5.13,5.13,0,0,0,.66.13h0a.72.72,0,0,0-.24-.1L13,23.2v0a.35.35,0,0,1,.24-.1h0c0-.32.14,0-1.92-.64-.68-.16-.77-.19-.77-.28h0c0-.14-.19-.21-1.2-.46a3.52,3.52,0,0,1-.78-.24.4.4,0,0,0-.2-.09.34.34,0,0,1-.21-.09h0v0c0-.07.15-.14.38-.17h.1a1.06,1.06,0,0,1,.25,0,.93.93,0,0,0,.29.05s.05,0,0-.07a2.67,2.67,0,0,0-.46-.2c-.56-.18-.62-.23-2.27-.73C6,20,5.85,20,5.82,19.9a.64.64,0,0,0-.34-.19.86.86,0,0,1-.34-.18.92.92,0,0,0-.35-.19,1.19,1.19,0,0,1-.42-.21,1.08,1.08,0,0,0-.49-.21,3.22,3.22,0,0,1-1-.35h0a.24.24,0,0,1,.16,0,.39.39,0,0,1,.24,0s0,0,0,0h0s-.11-.06-.3-.25v0s0-.05.07-.07,0,0,0,0S3,18,2.59,17.79a1.36,1.36,0,0,1-.49-.29h0s0,0,0,0H2.2s-.19-.15-.39-.22a1,1,0,0,1-.33-.16,1.13,1.13,0,0,0-.32-.19c-.2-.09-.31-.15-.31-.18h0s.05,0,.12,0h.3a.35.35,0,0,0,.23-.07.12.12,0,0,1,.1-.05,1,1,0,0,1,.3.07,2.34,2.34,0,0,0,.58.14.15.15,0,0,0,.15-.11.34.34,0,0,0,.05-.17h0a.81.81,0,0,0-.31-.15,1,1,0,0,1-.32-.15.89.89,0,0,0-.25-.14c-.13,0-.19-.1-.2-.13h0s0,0,.08,0l.22,0a1.43,1.43,0,0,0,.29,0h.05s0,0,0,0a2.07,2.07,0,0,1,.35,0l.29,0S3,16,3,16v0s0-.06-.15-.09a1.15,1.15,0,0,1-.31-.11,2.85,2.85,0,0,0-.51-.2,1.07,1.07,0,0,1-.41-.18c-.07,0,0,0-.2-.07s-.06-.06.2-.06h.24a1.62,1.62,0,0,0,.49-.08s0,0,0,0h0s-.19-.14-.57-.28a1.78,1.78,0,0,1-.44-.21.63.63,0,0,0-.27-.06c-.22,0-.28,0-.28-.11h0c0-.11.11-.27.19-.27H1s0,0,0,0h0a.24.24,0,0,0-.08.08H1l.05,0h0a.11.11,0,0,0,.08-.08s0-.05.08-.06a2.29,2.29,0,0,1,.44.09,1.94,1.94,0,0,0,.48.09s.08,0,.09,0a0,0,0,0,0,0,0h0a.25.25,0,0,0,0-.09.56.56,0,0,0-.14-.2,2.59,2.59,0,0,0-.71-.5,2.32,2.32,0,0,0-.44-.16c-.27-.05-.42-.15-.42-.3s0-.06.07-.06a1.07,1.07,0,0,1,.25,0,2.24,2.24,0,0,1,.5.16,5.39,5.39,0,0,0,1,.28,4.6,4.6,0,0,0,.74.14c.07,0,.07,0,.07-.09v0A.27.27,0,0,0,3,13.21L2.53,13a13,13,0,0,0-1.83-.7C.19,12.18,0,12.08,0,12H0s0,0,0,0l0,0,0,0h0a0,0,0,0,0,0-.07h0v0s0,0,0,0h0l0,0H.2v0h0a.21.21,0,0,1,.12-.05.21.21,0,0,0,.15-.07.17.17,0,0,0,0-.07h0a.41.41,0,0,0,0-.18.66.66,0,0,1,0-.15.19.19,0,0,1,0-.07.19.19,0,0,0,0-.07h0a.12.12,0,0,0-.11-.11s-.07,0-.07,0a.74.74,0,0,0,0-.14V10.7h0a1.18,1.18,0,0,1,.31.08l.54.18a.27.27,0,0,0,.12,0s0,0,0-.06a.17.17,0,0,1,.06-.15.06.06,0,0,0,0-.06h0a.59.59,0,0,0-.13-.48l-.06-.06h.12l-.06-.07,0,0h0s0,0,.05,0a3.42,3.42,0,0,1,.44,0h.1c.13,0,.21-.06.21-.15A.06.06,0,0,1,2,9.87H2.3s.06,0,.07,0h0l-.05-.09a.45.45,0,0,0-.2-.12,1.27,1.27,0,0,1-.4-.3A1.4,1.4,0,0,0,1.3,9a1.77,1.77,0,0,1-.64-.24h0v0c-.06,0-.06,0-.15-.15h0a.18.18,0,0,1,.06-.13A.31.31,0,0,1,.8,8.33a.07.07,0,0,1,.06,0H.92a.05.05,0,0,0,0,0s0,0,.1,0a1.29,1.29,0,0,1,.61.13,6.17,6.17,0,0,0,1,.26,4.94,4.94,0,0,0,.77.12h0s0,0-.12-.08L3,8.54a1.66,1.66,0,0,0-.37-.14c-.1,0-.18-.06-.18-.1a.08.08,0,0,0-.07-.08.38.38,0,0,1-.15-.09.27.27,0,0,1-.07-.08h0s.07,0,.17-.17-.08-.18-.28-.31a1,1,0,0,1-.3-.28.35.35,0,0,0-.06-.14.12.12,0,0,1,0-.1.07.07,0,0,1,0,0,.07.07,0,0,1,.06-.06h0l0,0h0a.37.37,0,0,1,.08-.18.24.24,0,0,1,.2-.12h.18s.06,0,.06,0h0a1.53,1.53,0,0,1,.36.07,1.61,1.61,0,0,0,.37.07.12.12,0,0,0,.1,0,.22.22,0,0,1,.17,0,1.12,1.12,0,0,1,.54.11.2.2,0,0,0,.11,0,.05.05,0,0,0,.05,0,.08.08,0,0,1,.09,0h.12c.09,0,.14,0,.14-.1h0a.09.09,0,0,0-.06-.07.16.16,0,0,1-.1-.11,1,1,0,0,0-.44-.3C3.35,5.92,3,5.65,3,5.51H3s0-.06,0-.06h0l0,0h0v0a.58.58,0,0,1,.08-.22c.06-.1.1-.14.14-.14l.05,0,.06,0h0v0A.08.08,0,0,1,3.5,5h.2L4,5l.3-.06h0l-.11-.16a.49.49,0,0,0-.14-.18.86.86,0,0,1-.18-.14c-.1-.09-.14-.12-.13-.18a.2.2,0,0,1,0-.08.35.35,0,0,0,0-.14.07.07,0,0,0,0,0,.11.11,0,0,1,0-.07v0c0-.1.07.12.14.06a.47.47,0,0,1,.15-.13l.12-.06h0l-.13,0a.21.21,0,0,1-.17-.21.06.06,0,0,1,.05-.06H4a0,0,0,0,1,0,0H4a.37.37,0,0,0,.14-.07,1,1,0,0,1,.3-.11.29.29,0,0,0,.21-.09c.18-.1,0-.08.5.14a1,1,0,0,0,.41.16.26.26,0,0,0,.19-.13s.06-.07.1-.07a.63.63,0,0,1,.23.08,2.24,2.24,0,0,0,.76.19h0a1.17,1.17,0,0,0-.34-.2c-.35-.15-.45-.2-.44-.24s0,0,0,0v0c0-.12-.49-.45-1-.63a.76.76,0,0,1-.28-.15h0A.39.39,0,0,1,5,2.08.35.35,0,0,0,5,1.91a.31.31,0,0,0,0-.12.71.71,0,0,1-.08-.15s0,0,0,0A3,3,0,0,1,5.84,2a2.9,2.9,0,0,0,1,.42.05.05,0,0,0,0,0,.09.09,0,0,0,0-.07.11.11,0,0,0,0-.08c0-.09-.11-.14-.68-.47C6.07,1.64,6,1.56,6,1.49s0-.06,0-.06a.9.9,0,0,1,.27.07.92.92,0,0,0,.28.05s0,0,0,0,0,0,0,0h0s0,0,0,0,0,0,0,0h0l.15,0,.1.05h0a2,2,0,0,1,.43.25,3.32,3.32,0,0,0,.8.34h0s.07,0,.06-.08h0a.88.88,0,0,1,0-.16h0a4.55,4.55,0,0,0-1.39-.7,1.94,1.94,0,0,1-.4-.22A1,1,0,0,0,6.06.78.78.78,0,0,1,5.63.54v0h.06A2.94,2.94,0,0,1,6.2.55l.52.07h0A2.91,2.91,0,0,1,6.34.28h0s0,0,0-.05a.11.11,0,0,1,.08,0,.42.42,0,0,1,.22.08A1.53,1.53,0,0,0,7,.38s0,0,0,0H7S6.93.24,6.86.2,6.7.1,6.71.08h0s0,0,.07,0A.52.52,0,0,1,7,.07a.79.79,0,0,0,.22,0,.39.39,0,0,0,.18,0,.21.21,0,0,1,.12,0,.19.19,0,0,1,.1,0A16.32,16.32,0,0,0,9.63.44s0,0,0,0h0s0,0,.08,0a2.79,2.79,0,0,1,.9.24,12.44,12.44,0,0,0,2.31.82,7.73,7.73,0,0,1,1,.28l1,.34a3.58,3.58,0,0,1,.55.19,2.48,2.48,0,0,0,.35.13l.47.15c.16.06.93.27,1.5.41.4.1,1,.27,1.44.41.72.15,1.31.35,4,.93a5.92,5.92,0,0,0,.94.14c.07,0,.11-.19.18,0a.14.14,0,0,0,.15.08h0a.18.18,0,0,1,.15.06.39.39,0,0,0,.19.12.85.85,0,0,1,.22.09,1.2,1.2,0,0,0,.57.21l.06,0h0A.31.31,0,0,1,26,5s0,0,0,0h0a1.53,1.53,0,0,0,.46.14c.7.16.77.18.85.29s.05.07.06.07h0s0,0,0-.09a.13.13,0,0,1,0-.06h0v0h0l.16,0s.1,0,.1.07a.23.23,0,0,0,.07.1l0,0h0v0s0,0,0-.09h0l0,0a1.57,1.57,0,0,0,.46.16h0c.41.09.41.09,2.32.44l.22,0c.92.17,1.79.35,1.93.4a1.16,1.16,0,0,0,.31.07h0c.62.05,1.24.13,1.85.24l.17,0a.45.45,0,0,0,.38-.19h0v0h0a.12.12,0,0,0-.07-.1,0,0,0,0,1,0,0h0s0,0,.06-.08a.35.35,0,0,0,.13-.11s.08-.06.18-.07a.5.5,0,0,1,.32.08,1,1,0,0,0,.51.15l1.62.25c.63.1,1.22.18,1.31.18h0l.51.06.42,0,.09,0A1.15,1.15,0,0,1,40.93,7a.47.47,0,0,1,.17,0,.56.56,0,0,0,.31.06h.31l.15,0a2.64,2.64,0,0,0,.49,0,3.86,3.86,0,0,1,.58,0h.13a.17.17,0,0,0,.1,0,.44.44,0,0,1,.19-.07h0a.08.08,0,0,1,.07,0,0,0,0,0,1,0,.06h0c0,.11,0,0,.31.13.16,0,.61.06,1,.12a5,5,0,0,0,.86.09h0l.24,0h0s0,0,0-.09a.3.3,0,0,0-.19-.14c-.08,0-.15,0-.15,0h0l0-.13s0,0,0-.07h0s.09,0,.15.13,0,.14.13,0h.05s0,0,.08-.06h0l.64,0c.27,0,.8.07,1.22.13L38.6,27.64ZM13.75,23.47a.06.06,0,0,0,.06.06s.07,0,.07,0a.09.09,0,0,0-.07-.06h0a0,0,0,0,0,0,0Zm-.18,0s.16,0,0,0h0s0,0,0,0ZM13.4,23s.13.15.23.06a.22.22,0,0,0-.19-.09s0,0,0,0ZM4,17.21a1.15,1.15,0,0,0,.43.21,3.5,3.5,0,0,0,.55.17H5s0,0,0,0,0,0,0,0a1.89,1.89,0,0,0-.51-.21L4,17.17H4v0Zm-.33-1a.92.92,0,0,0,.35.19,3.82,3.82,0,0,1,.46.21l.07,0h0v0a1.23,1.23,0,0,0-.41-.21l-.41-.18-.06,0h0v0h0Zm-2-.88a.32.32,0,0,0,.19,0c.05,0,0,0-.09,0H1.71S1.69,15.3,1.72,15.31Zm-.66-.89a.12.12,0,0,0,.1,0s0,0,0,0h0s0,0,0,0Zm.27-1.13c0,.05.16.13,0-.06h0s0,0,0,.06ZM43.44,8a15.69,15.69,0,0,0,2.17.27h0C45.08,8.09,44.53,8,44,7.87h-.46S43.36,7.89,43.44,8Zm-1.38-.16a.46.46,0,0,0,.2.05,1.66,1.66,0,0,0,.32,0s.06,0,.06,0h0s0,0-.11-.07l-.11,0h-.16a.72.72,0,0,1-.19,0Zm-.62-.07c-.13,0,.69.15.21,0h-.11a.17.17,0,0,0-.1,0ZM4,3.56A.08.08,0,0,0,4,3.64C4.11,3.7,4,3.4,4,3.56ZM8.46,2.31s0,.07.18.09.18,0,.07,0a.72.72,0,0,0-.2-.09S8.47,2.29,8.46,2.31Z"/></g><g class="cls-2"><path d="M100.48,12.73a1,1,0,0,1,.26.73V28.71a1.06,1.06,0,0,1-.24.7.88.88,0,0,1-.68.26.78.78,0,0,1-.65-.26,1.1,1.1,0,0,1-.22-.7V16.4l-5.22,10a1.07,1.07,0,0,1-1,.7,1.09,1.09,0,0,1-1-.7l-5.25-9.9V28.71a1.05,1.05,0,0,1-.23.7.8.8,0,0,1-.66.26.86.86,0,0,1-.68-.26,1,1,0,0,1-.24-.7V13.46a1,1,0,0,1,.27-.73.91.91,0,0,1,.72-.28,1.09,1.09,0,0,1,1,.7l6.12,11.73,6-11.73a1.37,1.37,0,0,1,.42-.54,1,1,0,0,1,1.25.12Z"/><path d="M113.86,22.16v6.55a1,1,0,0,1-.25.7,1,1,0,0,1-1.38,0,.94.94,0,0,1-.27-.7V27.55a3.45,3.45,0,0,1-1.4,1.61,4.16,4.16,0,0,1-2.16.56,4.84,4.84,0,0,1-2.09-.45,3.83,3.83,0,0,1-1.5-1.28,3.17,3.17,0,0,1-.56-1.81,2.94,2.94,0,0,1,.68-2.06,4.08,4.08,0,0,1,2.21-1.06,22.56,22.56,0,0,1,4.29-.32H112v-.8a3.19,3.19,0,0,0-.59-2.12,2.41,2.41,0,0,0-1.91-.67,7.11,7.11,0,0,0-3.33.89,2.25,2.25,0,0,1-.91.41.61.61,0,0,1-.49-.22.83.83,0,0,1-.19-.55.89.89,0,0,1,.21-.59,2.25,2.25,0,0,1,.66-.52,8,8,0,0,1,1.91-.76,8.8,8.8,0,0,1,2.14-.28C112.39,17.53,113.86,19.08,113.86,22.16ZM111,27.21a3.52,3.52,0,0,0,.93-2.52V24h-.43a21.62,21.62,0,0,0-3.23.18,3.14,3.14,0,0,0-1.58.6,1.6,1.6,0,0,0-.47,1.24,2,2,0,0,0,.69,1.56,2.48,2.48,0,0,0,1.72.61A3.13,3.13,0,0,0,111,27.21Z"/><path d="M124.25,18.4A.9.9,0,0,1,124,19a1.19,1.19,0,0,1-.75.27l-.72.07a3.25,3.25,0,0,0-2.4,1.15,3.72,3.72,0,0,0-.78,2.35v5.85a.91.91,0,0,1-.27.72,1,1,0,0,1-.69.24,1,1,0,0,1-.71-.25.89.89,0,0,1-.28-.71V18.55a.88.88,0,0,1,.29-.71,1,1,0,0,1,.7-.26.92.92,0,0,1,.65.26.9.9,0,0,1,.26.68v1.35a3.65,3.65,0,0,1,1.44-1.61,4.72,4.72,0,0,1,2.13-.65l.33,0C123.91,17.53,124.25,17.81,124.25,18.4Z"/><path d="M135.55,17.85a1,1,0,0,1,.26.7V28.73a.94.94,0,0,1-.26.68.9.9,0,0,1-.71.26.92.92,0,0,1-.68-.25.89.89,0,0,1-.25-.66V27.55a3.81,3.81,0,0,1-1.56,1.62,4.55,4.55,0,0,1-2.25.55,4.05,4.05,0,0,1-3.16-1.17,5,5,0,0,1-1.06-3.45V18.55a.93.93,0,0,1,.27-.7,1,1,0,0,1,.72-.27.92.92,0,0,1,.71.27,1,1,0,0,1,.26.7v6.5a3.49,3.49,0,0,0,.62,2.3,2.47,2.47,0,0,0,2,.73,3.28,3.28,0,0,0,2.48-1,3.74,3.74,0,0,0,.94-2.64v-5.9a.92.92,0,0,1,.26-.7,1,1,0,0,1,.72-.27A.91.91,0,0,1,135.55,17.85Z"/><path d="M145.71,28.9a.7.7,0,0,1-.3.62,1.43,1.43,0,0,1-.91.15l-.65,0A4.13,4.13,0,0,1,141,28.47a4.44,4.44,0,0,1-.91-3.06V19.36h-1.62a.93.93,0,0,1-.64-.2.71.71,0,0,1-.23-.54.77.77,0,0,1,.23-.58.94.94,0,0,1,.64-.22h1.62V15.1a.93.93,0,0,1,.26-.71,1,1,0,0,1,.72-.25,1,1,0,0,1,.7.25.93.93,0,0,1,.27.71v2.72h2.67a.86.86,0,0,1,.61.22.73.73,0,0,1,.23.58.68.68,0,0,1-.23.54.85.85,0,0,1-.61.2h-2.67v6.15a2.78,2.78,0,0,0,.54,1.91,2.25,2.25,0,0,0,1.62.66l.66.05C145.43,28.18,145.71,28.44,145.71,28.9Z"/><path d="M147.68,14.72a1.19,1.19,0,0,1-.36-.9,1.12,1.12,0,0,1,.36-.86,1.31,1.31,0,0,1,.94-.34,1.29,1.29,0,0,1,.94.34,1.12,1.12,0,0,1,.36.86,1.19,1.19,0,0,1-.36.9,1.33,1.33,0,0,1-.94.33A1.35,1.35,0,0,1,147.68,14.72Zm.23,14.7a.92.92,0,0,1-.27-.71V18.55a.91.91,0,0,1,.27-.71,1,1,0,0,1,.71-.26,1,1,0,0,1,.7.26.91.91,0,0,1,.27.71V28.71a.91.91,0,0,1-.27.72,1,1,0,0,1-.7.24A1,1,0,0,1,147.91,29.42Z"/><path d="M163.34,22.18v6.53a1,1,0,0,1-.25.71,1,1,0,0,1-.71.25,1,1,0,0,1-.73-.25,1,1,0,0,1-.26-.71V22.3a3.6,3.6,0,0,0-.64-2.38,2.51,2.51,0,0,0-2-.75,3.43,3.43,0,0,0-2.58,1,3.67,3.67,0,0,0-1,2.67v5.88a.88.88,0,0,1-1,1,1,1,0,0,1-.72-.25.92.92,0,0,1-.27-.71V18.55a.93.93,0,0,1,.27-.7,1,1,0,0,1,.72-.27.9.9,0,0,1,.69.27.91.91,0,0,1,.25.67v1.23a4,4,0,0,1,1.61-1.65,4.82,4.82,0,0,1,2.36-.57C161.94,17.53,163.34,19.08,163.34,22.18Z"/><path d="M176.11,22.16v6.55a1,1,0,0,1-.25.7.9.9,0,0,1-.69.26.91.91,0,0,1-1-1V27.55a3.43,3.43,0,0,1-1.39,1.61,4.2,4.2,0,0,1-2.17.56,4.77,4.77,0,0,1-2.08-.45A3.8,3.8,0,0,1,167.05,28a3.16,3.16,0,0,1-.55-1.81,2.94,2.94,0,0,1,.67-2.06,4.12,4.12,0,0,1,2.22-1.06,22.42,22.42,0,0,1,4.29-.32h.52v-.8a3.14,3.14,0,0,0-.59-2.12,2.41,2.41,0,0,0-1.91-.67,7.1,7.1,0,0,0-3.32.89,2.27,2.27,0,0,1-.92.41.61.61,0,0,1-.48-.22.78.78,0,0,1-.19-.55.88.88,0,0,1,.2-.59,2.56,2.56,0,0,1,.66-.52,8.1,8.1,0,0,1,1.92-.76,8.65,8.65,0,0,1,2.13-.28C174.64,17.53,176.11,19.08,176.11,22.16Zm-2.83,5.05a3.55,3.55,0,0,0,.92-2.52V24h-.43a21.71,21.71,0,0,0-3.23.18,3.09,3.09,0,0,0-1.57.6A1.56,1.56,0,0,0,168.5,26a2,2,0,0,0,.68,1.56,2.48,2.48,0,0,0,1.72.61A3.14,3.14,0,0,0,173.28,27.21Z"/><path d="M181.52,29.46a6.67,6.67,0,0,1-1.78-.75,2.41,2.41,0,0,1-.61-.54,1.05,1.05,0,0,1-.18-.62.74.74,0,0,1,.18-.51.59.59,0,0,1,.47-.21,1.81,1.81,0,0,1,.84.36,8.19,8.19,0,0,0,1.44.69,5.27,5.27,0,0,0,1.77.25,3.73,3.73,0,0,0,2-.46,1.46,1.46,0,0,0,.72-1.32,1.38,1.38,0,0,0-.26-.86,2.27,2.27,0,0,0-.92-.57,13.21,13.21,0,0,0-1.9-.52,7.37,7.37,0,0,1-3-1.23,2.59,2.59,0,0,1-.91-2.1,3,3,0,0,1,.58-1.83,3.9,3.9,0,0,1,1.6-1.25,5.72,5.72,0,0,1,2.32-.46,6.46,6.46,0,0,1,1.82.26,5.31,5.31,0,0,1,1.56.71,1.55,1.55,0,0,1,.81,1.2.75.75,0,0,1-.19.53.58.58,0,0,1-.45.22,1.79,1.79,0,0,1-.87-.41,7.66,7.66,0,0,0-1.28-.68,4,4,0,0,0-1.49-.24,3,3,0,0,0-1.82.51,1.6,1.6,0,0,0-.69,1.35,1.33,1.33,0,0,0,.26.85,2,2,0,0,0,.84.58,9.49,9.49,0,0,0,1.7.5,12,12,0,0,1,2.54.79,3,3,0,0,1,1.29,1.06,3.07,3.07,0,0,1,.38,1.59A2.85,2.85,0,0,1,187,28.79a5.58,5.58,0,0,1-3.37.93A8.39,8.39,0,0,1,181.52,29.46Z"/><path d="M200.86,17.85a1,1,0,0,1,.25.7V28.73a1,1,0,0,1-1.65.69.89.89,0,0,1-.25-.66V27.55a3.81,3.81,0,0,1-1.56,1.62,4.52,4.52,0,0,1-2.25.55,4,4,0,0,1-3.15-1.17,5,5,0,0,1-1.06-3.45V18.55a.92.92,0,0,1,.26-.7,1,1,0,0,1,.72-.27.94.94,0,0,1,.72.27,1,1,0,0,1,.25.7v6.5a3.55,3.55,0,0,0,.62,2.3,2.47,2.47,0,0,0,2,.73,3.26,3.26,0,0,0,2.48-1,3.69,3.69,0,0,0,.94-2.64v-5.9a1,1,0,0,1,.26-.7,1,1,0,0,1,.73-.27A.93.93,0,0,1,200.86,17.85Z"/></g></g></g></svg>