<svg xmlns="http://www.w3.org/2000/svg" width="190.134" height="35.978" viewBox="0 0 190.134 35.978">
  <g id="logo" transform="translate(-139.866 -36.711)">
    <text id="text-logo" transform="translate(230 62)" font-size="20" font-family="Nunito-Regular, Nunito"><tspan x="0" y="0">Marutinasu</tspan></text>
    <path id="paint-logo" d="M-3931.841-2283.585a.092.092,0,0,1-.03-.005.157.157,0,0,1-.092-.117c0-.037-.012-.056-.023-.056s-.018.009-.03.025a.161.161,0,0,1-.13.075.143.143,0,0,1-.127-.084.249.249,0,0,0-.04-.065s0,.023.01.065.01.06.005.067h0c-.015,0-.028-.011-.045-.03a.4.4,0,0,0-.122-.088c-.03-.011-.059-.079-.065-.153s-.036-.128-.083-.128a.093.093,0,0,0-.09.1.081.081,0,0,0,.078.084c.043,0,.063,0,.063.007s-.017.012-.059.028l-.006,0a.244.244,0,0,1-.083.012.5.5,0,0,1-.144-.022,2.4,2.4,0,0,0-.393-.066c-.355-.031-1.268-.182-1.682-.278-.2-.048-.44-.1-.535-.121-.219-.045-.653-.146-1.192-.277-.211-.051-.506-.12-.658-.151a3.735,3.735,0,0,1-.975-.335,2.126,2.126,0,0,0-.224-.167c-.092-.061-.165-.132-.162-.159a.581.581,0,0,1,.124-.175.211.211,0,0,1,.161-.09.46.46,0,0,1,.16.04.475.475,0,0,0,.151.037.054.054,0,0,0,.041-.012.021.021,0,0,0,0-.018c0-.039-.142-.121-.317-.186-.208-.076-.365-.185-.383-.266a.055.055,0,0,1,.014-.053.04.04,0,0,1,.024,0,1.8,1.8,0,0,1,.544.152.009.009,0,0,1,0,.007c0,.021.135.073.271.111a2.3,2.3,0,0,1,.5.217.9.9,0,0,0,.242.119l.007,0s.014-.006.031-.006a.746.746,0,0,1,.167.028,1.17,1.17,0,0,0,.262.037h.051a.156.156,0,0,1,.142.077,1.259,1.259,0,0,0,.435.24c.229.089.343.151.358.193a.023.023,0,0,1,0,.021c-.008.014-.007.02-.006.022l0,0a.112.112,0,0,0,.046-.029.117.117,0,0,1,.077-.027.324.324,0,0,1,.163.062.317.317,0,0,0,.124.056.019.019,0,0,0,.016-.006.031.031,0,0,0,0-.026c-.006-.026-.009-.043,0-.052a.029.029,0,0,1,.025-.008,1.882,1.882,0,0,1,.325.086l.008,0a1.4,1.4,0,0,0,.329.064.14.14,0,0,0,.032,0,.168.168,0,0,1,.033,0,.071.071,0,0,1,.052.017.026.026,0,0,1,.007.021c0,.03.04.071.095.09a.2.2,0,0,0,.062.011c.028,0,.045-.009.046-.025a.038.038,0,0,1,.042-.031.073.073,0,0,1,.026,0,.065.065,0,0,1,.04.036.041.041,0,0,1,0,.034.015.015,0,0,0,0,.015c.019.033.161.056.276.056.086,0,.143-.012.155-.033s.083-.046.188-.046a1.248,1.248,0,0,1,.63.151.042.042,0,0,1,.013.032.079.079,0,0,0,.035.085h.008a.017.017,0,0,0,.014-.007.062.062,0,0,0,0-.05.093.093,0,0,1,.009-.079.045.045,0,0,1,.036-.018.1.1,0,0,1,.079.064c.019.037.032.054.045.054s.021-.013.032-.041a.064.064,0,0,1,.068-.04.326.326,0,0,1,.127.034.35.35,0,0,0,.128.034c.026,0,.042-.008.043-.023s.016-.038.038-.038c.065,0,.183.111.2.21.012.063.038.109.061.109a.016.016,0,0,0,.009,0,.083.083,0,0,0,.029-.088.059.059,0,0,1,.007-.046.066.066,0,0,1,.041-.03l.014,0a.072.072,0,0,1,.066.058.048.048,0,0,0,.053.037.2.2,0,0,0,.084-.025.7.7,0,0,1,.275-.043c.13,0,.281.021.308.067a.169.169,0,0,1,.021.15.03.03,0,0,1-.026.017.057.057,0,0,1-.035-.016.067.067,0,0,0-.041-.018c-.023,0-.039.022-.046.063l-.018.1-.007.036-.012.065a.089.089,0,0,1-.079.079l-.014,0a.54.54,0,0,0-.1-.013h-.009c-.013,0-.06,0-.16.012a.285.285,0,0,0-.21.086.1.1,0,0,0-.016.083.036.036,0,0,1,0,.031.031.031,0,0,1-.024.012Zm19-1.805a.053.053,0,0,1-.042-.015c-.018-.02-.017-.06-.01-.123s.034-.111.07-.111l.016,0a.136.136,0,0,0,.037.009s.008,0,.009,0,0-.024-.027-.059a.181.181,0,0,0-.128-.082.077.077,0,0,1-.056-.025.059.059,0,0,1-.014-.044c0-.02.021-.031.051-.031a.223.223,0,0,1,.087.021,1.493,1.493,0,0,0,.213.078.178.178,0,0,0,.042.008c.008,0,.012,0,.014-.006s0-.027-.028-.065-.035-.059-.031-.067,0,0,.01,0a.15.15,0,0,1,.039.009.079.079,0,0,0,.024,0,.051.051,0,0,0,.054-.046.05.05,0,0,1,.05-.047.062.062,0,0,1,.021,0,.063.063,0,0,1,.039.035.04.04,0,0,1,0,.034.3.3,0,0,0,.043.19c.03.06.046.1.035.124s-.08.065-.236.125a1.3,1.3,0,0,1-.265.084Zm-27.442-.08a.419.419,0,0,1-.16-.07.4.4,0,0,0-.164-.067.031.031,0,0,0-.035.03c0,.025-.028.039-.069.039a.248.248,0,0,1-.083-.016c-.064-.021-.1-.047-.112-.074a.042.042,0,0,1,0-.038c.01-.018.013-.029.01-.034a.011.011,0,0,0-.01,0,.176.176,0,0,0-.059.02.174.174,0,0,1-.06.021.012.012,0,0,1-.011,0c-.005-.008,0-.026.012-.064s.046-.08.065-.08l.012,0c.018,0,.033-.022.038-.054a.1.1,0,0,0-.009-.072.016.016,0,0,0-.012-.006c-.029,0-.077.068-.116.166-.046.115-.066.162-.091.162s-.044-.032-.083-.085a.283.283,0,0,1-.027-.251.287.287,0,0,0,.009-.152.008.008,0,0,0-.006,0c-.024,0-.046-.026-.052-.064a.019.019,0,0,1,0-.017c.007-.009.024-.013.051-.013a.727.727,0,0,1,.19.037c.236.072.26.093.284.252.019.118.093.213.142.213.023,0,.037-.021.042-.058a.053.053,0,0,0-.008-.041.017.017,0,0,0-.014-.007.028.028,0,0,0-.014,0,.024.024,0,0,1-.012,0,.009.009,0,0,1-.008,0c-.007-.009,0-.032.008-.064s.031-.048.053-.048a.061.061,0,0,1,.042.021c.016.017.028.025.035.025a.007.007,0,0,0,.006,0s.005-.015,0-.044a.063.063,0,0,1,.009-.055.1.1,0,0,1,.082-.029.4.4,0,0,1,.181.053.271.271,0,0,0,.123.03.166.166,0,0,0,.057-.009.156.156,0,0,1,.046-.014s.008,0,.009,0-.007.041-.04.106-.045.1-.038.11a.018.018,0,0,0,.015.006.124.124,0,0,0,.03,0,.127.127,0,0,1,.03-.005.016.016,0,0,1,.015.006c.008.013-.007.048-.037.109l-.065.128-.024-.161c-.017-.108-.054-.177-.094-.177-.025,0-.047.026-.066.074a.143.143,0,0,0-.01.092.014.014,0,0,0,.008.009c.018.007.028.057.022.111S-3940.254-2285.47-3940.28-2285.47Zm14.312-.349a.317.317,0,0,1-.315-.14.637.637,0,0,1-.114-.22c0-.039-.019-.068-.035-.068a.807.807,0,0,1-.131-.018c-.042-.009-.062-.018-.072-.034s-.007-.053.006-.1a.2.2,0,0,0,0-.159,1.294,1.294,0,0,0,.364-.28,1.7,1.7,0,0,0,.41-1.189v-22.1c.667.1,1.945.23,2.34.23a.742.742,0,0,1,.514.117c.089.065.168.122.181.129s.081.053.153.1a.332.332,0,0,0,.167.068.055.055,0,0,0,.027-.005.159.159,0,0,1,.041,0c.152,0,.662.046,1.215.109.53.061,1.057.1,1.283.1a.555.555,0,0,0,.093-.005,5.369,5.369,0,0,1,.689-.045,2.046,2.046,0,0,0,.58-.06.215.215,0,0,1,.111-.021.674.674,0,0,1,.176.025.67.67,0,0,0,.161.025c.039,0,.063-.007.067-.02a.033.033,0,0,1,.03-.026.047.047,0,0,1,.031.015.036.036,0,0,0,.021.012.012.012,0,0,0,.009,0,.046.046,0,0,0,.006-.033.069.069,0,0,1,.009-.048.014.014,0,0,1,.01,0l.008,0a.178.178,0,0,0,.074.011.755.755,0,0,0,.345-.079.015.015,0,0,0,0-.012.026.026,0,0,1,.008-.019.591.591,0,0,1,.318-.076.361.361,0,0,1,.1.013l.019,0a.177.177,0,0,0,.132-.094c.038-.064.1-.116.14-.116s.2.011.329.023c.031,0,.066,0,.1,0a1.176,1.176,0,0,0,.314-.036,2.033,2.033,0,0,1,.323-.065.175.175,0,0,0,.128-.049.023.023,0,0,0,0-.023c-.012-.026-.014-.043-.005-.056.025-.039.143-.052.485-.052l.3,0a.06.06,0,0,0,.049-.02.045.045,0,0,0,.009-.04.087.087,0,0,1,.07-.088.574.574,0,0,0,.18-.122c.057-.055.168-.078.373-.078.054,0,.116,0,.188.005.266.011.51.03.563.04l.027,0a.39.39,0,0,0,.194-.067.214.214,0,0,1,.11-.042.044.044,0,0,1,.043.021.3.3,0,0,0,.156.132.009.009,0,0,0,.009,0s0-.014-.005-.027c-.014-.03-.019-.049-.014-.056a.008.008,0,0,1,.008,0c.018,0,.061.03.128.088a1.43,1.43,0,0,0,.768.163c.264,0,.59-.042.641-.16.029-.066.029-.113,0-.132a.112.112,0,0,1-.052-.083.032.032,0,0,1,.006-.023.021.021,0,0,1,.015-.006.07.07,0,0,1,.037.015.071.071,0,0,0,.037.012.049.049,0,0,0,.048-.035.043.043,0,0,0,0-.04.177.177,0,0,0-.138-.042.386.386,0,0,0-.207.056.785.785,0,0,1-.293.094l-.1.012-.166.021h-.009a.077.077,0,0,1-.071-.074c0-.06-.058-.085-.186-.087-.093,0-.131-.007-.135-.022s.005-.019.027-.036a.107.107,0,0,0,.044-.11.022.022,0,0,1,0-.023c.026-.041.2-.063.492-.063l.165,0c.255,0,.343.028.375.1.012.025.028.053.035.053s.005-.018,0-.04a.054.054,0,0,1,.013-.042.093.093,0,0,1,.07-.023.372.372,0,0,1,.267.136c.034.044.062.071.075.071l0,0a.017.017,0,0,0,0-.012.012.012,0,0,1,0-.01.077.077,0,0,1,.052-.011,1.414,1.414,0,0,1,.294.051c.2.051.5.125.678.168a2.054,2.054,0,0,1,.468.171.5.5,0,0,0,.229.077h.044a.124.124,0,0,1,.113.054c.008.018.011.029.009.033h0c-.007,0-.016,0-.035-.023s-.028-.025-.034-.025,0,.019.007.036a.814.814,0,0,0,.49.227c.142.029.174.058.188.173a.131.131,0,0,1-.013.1c-.028.033-.1.041-.247.048l-.112,0a1.4,1.4,0,0,1-.274-.019l-.107-.028.121.107a1.591,1.591,0,0,0,.782.367,3.874,3.874,0,0,1,.651.229,4.613,4.613,0,0,0,1.423.269c.121,0,.187-.014.2-.041a.05.05,0,0,1,.044-.039.053.053,0,0,1,.036.016,2.365,2.365,0,0,0,.761.153c.05,0,.065-.007.069-.012a.009.009,0,0,0,0-.008c-.008-.016-.013-.028-.008-.036s.026-.013.068-.013c.072,0,.216.012.454.033h.016c.186.017.328.026.5.026s.368-.009.631-.024l.085,0a.674.674,0,0,1,.5.186.1.1,0,0,1,.041.065c0,.036-.042.079-.125.152a.755.755,0,0,1-.487.162,7.522,7.522,0,0,0-1.015.122c-.1.021-.14.039-.158.068a.117.117,0,0,0,0,.094c.015.06.044.1.073.1a.033.033,0,0,0,.014,0,.051.051,0,0,1,.021,0c.023,0,.04.02.042.049a.056.056,0,0,1-.014.043.061.061,0,0,1-.045.018h-.009l-.03,0c-.011,0-.017,0-.018.006s.008.023.043.057.043.047.038.06,0,.006-.013.006h-.006a.023.023,0,0,0-.021.009.1.1,0,0,0,0,.084c.022.07-.014.126-.122.187l-.156.087.419.094c.229.052.531.106.674.121a2.178,2.178,0,0,1,.254.036,1.5,1.5,0,0,1-.072.143c-.035.065-.062.1-.072.1s0,0,0-.007a.01.01,0,0,0-.012-.011.166.166,0,0,0-.079.049.907.907,0,0,1-.4.113,2.175,2.175,0,0,0-.47.1.754.754,0,0,1-.268.051l-.047,0a.59.59,0,0,0-.065,0,1.193,1.193,0,0,0-.607.15c0,.01.01.018.032.023a1.3,1.3,0,0,1,.128.051l.031.014.02.009.09.042c.054.024.084.053.083.082s-.021.042-.059.056a.541.541,0,0,0-.184.17.282.282,0,0,1-.184.127h-.024a.141.141,0,0,0-.121.069.062.062,0,0,0-.008.054c.013.032.068.058.215.1.132.039.307.094.379.122a3.865,3.865,0,0,0,.807.117.146.146,0,0,0,.069-.009.336.336,0,0,1,.16-.022c.171,0,.383.03.386.064a.22.22,0,0,1-.052.123.231.231,0,0,0-.052.137c0,.024.01.038.018.038s.009,0,.013-.01a.019.019,0,0,1,.017-.008.118.118,0,0,1,.072.049c.019.024.036.038.047.038a.008.008,0,0,0,.007,0,.025.025,0,0,0,0-.018.049.049,0,0,1,.012-.037.049.049,0,0,1,.037-.015h.009c.038.005.061.018.064.036s-.036.072-.116.116-.092.064-.09.092.064.082.23.156c.144.064.224.136.225.2,0,.041-.03.078-.089.108a2.835,2.835,0,0,1-.827.081,4.967,4.967,0,0,1-.6-.032,3.4,3.4,0,0,0-.405-.031.5.5,0,0,0-.1.007l-.109.028.134.164a.563.563,0,0,0,.207.177.128.128,0,0,1,.09.058.26.26,0,0,1,.01.207.774.774,0,0,1-.52.372h-.019l-.025,0a.063.063,0,0,0-.055.021.035.035,0,0,0,0,.034.155.155,0,0,0,.11.077c.072.01.166.181.16.29a.029.029,0,0,0,.009.022.409.409,0,0,0,.24.045c.2,0,.429-.041.455-.107a2.864,2.864,0,0,1,.987-.136.579.579,0,0,1,.228.026l.106.07-.092.066a3.487,3.487,0,0,1-.764.147c-.405.048-.638.1-.638.157,0,.032.086.06.257.083a.546.546,0,0,1,.317.129c.052.064.116.083.276.083.054,0,.121,0,.211-.007a7.791,7.791,0,0,0,1.067-.09.1.1,0,0,1,.032-.006.032.032,0,0,1,.025.01.1.1,0,0,1,.013.075c-.006.112-.126.227-.322.308-.057.024-.086.053-.08.081s.081.066.177.066a.61.61,0,0,0,.073,0l.089-.01c.09-.011.2-.023.274-.031l.189-.019-.141.207a1.507,1.507,0,0,0-.138.231,1.144,1.144,0,0,0,.27.1c.35.1.544.27.56.48a.1.1,0,0,1-.031.072.7.7,0,0,1-.456.144h-.04a3.66,3.66,0,0,0-.5.051,3.87,3.87,0,0,1-.563.046h-.064l-.106,0a3.825,3.825,0,0,0-.439.024,6.182,6.182,0,0,0-1.079.172.01.01,0,0,0,0,.009c0,.023.069.071.162.116.109.053.2.133.2.178.009.108-.4.283-.781.335a.512.512,0,0,0-.357.152.486.486,0,0,1-.308.152c-.142.024-.21.054-.219.1s.074.142.288.281c.08.053.135.125.128.165a.35.35,0,0,1-.287.19h-.029a.044.044,0,0,0-.039.017.042.042,0,0,0,0,.041.685.685,0,0,0,.349.109c.2.026.321.074.329.123,0,.021-.014.042-.053.061-.011.005-.016.011-.014.016a1.235,1.235,0,0,0,.49.058,2.25,2.25,0,0,0,.324-.02,1.5,1.5,0,0,1,.222-.019c.234,0,.365.078.379.226.007.088-.092.187-.38.378-.23.153-.334.244-.339.3a.029.029,0,0,0,.009.025.08.08,0,0,1,.03.073c-.011.051-.1.1-.29.175-.387.146-.677.436-.619.62a.08.08,0,0,1-.007.073c-.046.069-.234.107-.743.151a2.453,2.453,0,0,0-.7.129.771.771,0,0,1-.329.09,2.675,2.675,0,0,0-.983.25.286.286,0,0,1-.183.065h-.021l-.039,0a.405.405,0,0,0-.169.033c-.026.014-.037.024-.035.033s.038.026.126.042c.365.069.561.148.618.248a.133.133,0,0,0,.116.083.14.14,0,0,0,.037-.006.3.3,0,0,1,.06-.014s.006,0,.007,0-.009.017-.041.044a.172.172,0,0,1-.106.038.1.1,0,0,1-.038-.006.144.144,0,0,0-.046-.008.127.127,0,0,0-.083.027.052.052,0,0,1-.035.011.222.222,0,0,1-.13-.063c-.053-.047-.087-.066-.118-.066a.107.107,0,0,0-.069.032.1.1,0,0,1-.062.031.048.048,0,0,1-.043-.031.49.49,0,0,0-.273-.1.779.779,0,0,1-.356-.139c-.081-.075-.128-.109-.153-.109a.018.018,0,0,0-.014.006.067.067,0,0,0-.008.048.088.088,0,0,0,.072.073.057.057,0,0,1,.044.026.041.041,0,0,1,0,.036c-.009.03.024.075.074.1a.139.139,0,0,1,.081.128c-.01.079-.177.1-.686.1h-.256c-.334,0-.465.013-.5.049a.032.032,0,0,0-.009.025.08.08,0,0,0,.069.068c.036.006.069.066.075.136a.129.129,0,0,1-.017.1.069.069,0,0,1-.053.018l-.026,0-.026,0c-.039,0-.066.014-.072.039s.023.073.08.1a2.34,2.34,0,0,0,.478.059c.636.031.9.084,1.045.211a.4.4,0,0,0,.151.1l.007,0h.006a.349.349,0,0,1,.017.155c0,.211.063.255.5.33.167.029.238.044.243.068s-.015.028-.044.048a2.349,2.349,0,0,1-.921.175l-.078,0h-.041a.534.534,0,0,0-.33.078.2.2,0,0,1-.134.076c-.046,0-.09-.033-.142-.107a.383.383,0,0,0-.249-.126,5.592,5.592,0,0,0-.575-.021,7.441,7.441,0,0,0-1.056.052c-.143.046-.147.056-.1.27a.509.509,0,0,1,.014.281c-.027.041-.022.089.016.153s.048.1.033.132-.061.042-.141.042a3.374,3.374,0,0,1-.524-.068,3.416,3.416,0,0,0-.55-.074.3.3,0,0,0-.176.041,1.959,1.959,0,0,1-.7.094c-.063,0-.121,0-.172-.005h-.024a2.451,2.451,0,0,0-.269.023l-.209.029.2.072a3.584,3.584,0,0,0,.7.108c.285.019.685.061.893.094a4.386,4.386,0,0,0,.6.035c.109,0,.215,0,.3-.009.274-.017.565-.026.821-.026a4.878,4.878,0,0,1,.6.027.465.465,0,0,0,.068.005c.062,0,.108-.013.116-.033s.067-.044.135-.044h.046a.137.137,0,0,0,.094-.025.023.023,0,0,0,.007-.018.019.019,0,0,1,0-.014.029.029,0,0,1,.022-.007.161.161,0,0,1,.069.021.224.224,0,0,0,.062.028c.005-.006,0-.016-.032-.049s-.048-.054-.044-.063.008-.006.02-.006l.029,0h.009a.06.06,0,0,0,.044-.018.057.057,0,0,0,.015-.044.026.026,0,0,1,0-.02.012.012,0,0,1,.009,0c.017,0,.051.024.094.068.076.078.126.119.144.119a.007.007,0,0,0,.006,0c0-.007,0-.024-.013-.051a.049.049,0,0,1,0-.042.081.081,0,0,1,.053-.04.094.094,0,0,1,.025,0,.059.059,0,0,1,.063.055c0,.043.074.083.166.095a.408.408,0,0,0,.056,0,.1.1,0,0,0,.08-.024.04.04,0,0,0,.007-.036.042.042,0,0,1,.005-.036.047.047,0,0,1,.038-.013.363.363,0,0,1,.1.021c.18.058.367.229.378.346,0,.023.007.035.013.035s.017-.016.028-.046.017-.039.023-.039.019.051.026.128a.58.58,0,0,1-.062.382.063.063,0,0,1-.047.024h-.015a.031.031,0,0,0-.027.013.049.049,0,0,0,0,.046.047.047,0,0,1,0,.044.045.045,0,0,1-.039.018h-.008l-.049,0a.345.345,0,0,0-.262.1.145.145,0,0,1-.1.032c-.086,0-.186-.05-.191-.116a.011.011,0,0,1,0-.008.012.012,0,0,1,.009,0,.1.1,0,0,1,.046.02.044.044,0,0,0,.025.008.11.11,0,0,0,.085-.07c.026-.052.034-.073.031-.078s-.019.007-.037.022a.061.061,0,0,1-.031.018.009.009,0,0,1-.007,0c-.007-.008-.006-.032,0-.081a.2.2,0,0,0-.04-.173.189.189,0,0,0-.1-.063.011.011,0,0,0-.011.006c0,.01.009.034.036.063s.028.036.025.043-.007.005-.014.005a.44.44,0,0,1-.108-.028.409.409,0,0,0-.129-.021.171.171,0,0,0-.109.028.1.1,0,0,1-.062.031c-.024,0-.048-.016-.08-.054s-.043-.049-.056-.049-.025.021-.035.071a.507.507,0,0,0-.013.158.033.033,0,0,1-.006.028.043.043,0,0,1-.035.014h-.017a.068.068,0,0,0-.063.064c0,.038-.066.072-.133.073a.189.189,0,0,0-.162.095c-.014.032-.035.053-.055.053a.03.03,0,0,1-.024-.014c-.005-.007-.01-.011-.012-.011s.005.059.01.075c.015.048.017.085.006.1a.015.015,0,0,1-.013.007c-.02,0-.051-.033-.074-.105-.015-.044-.026-.068-.041-.068s-.034.022-.064.064-.048.066-.06.066-.016-.032-.021-.09-.011-.083-.018-.083-.013.014-.027.051c-.049.134-.037.168.08.225a.19.19,0,0,1,.112.187.188.188,0,0,1-.052.142.242.242,0,0,1-.177.068.367.367,0,0,1-.077-.009.426.426,0,0,0-.086-.009.229.229,0,0,0-.169.059.108.108,0,0,0-.028.085.068.068,0,0,1-.013.053.067.067,0,0,1-.051.016.418.418,0,0,1-.09-.013.761.761,0,0,0-.177-.019.725.725,0,0,0-.376.083c-.024.018-.033.029-.031.037s.019.016.059.024.182.042.3.075a4.123,4.123,0,0,0,.9.138.645.645,0,0,0,.112-.008.522.522,0,0,1,.087-.009c.027,0,.043,0,.051.015a.037.037,0,0,1,0,.034c-.007.02-.008.035,0,.042a.015.015,0,0,0,.013.006.059.059,0,0,0,.022-.006l.01,0c.036,0,.091.064.138.16s.07.161.059.188a.028.028,0,0,1-.017.017.027.027,0,0,0-.017.018c0,.02.013.052.053.1s.055.067.051.075,0,0-.008,0a.383.383,0,0,1-.09-.028.3.3,0,0,0-.078-.022s-.007,0-.007,0,0,.006.011.015c.048.037.069.073.059.1s-.049.042-.108.042a.441.441,0,0,1-.055,0c-.107-.015-.173-.053-.177-.1,0-.03-.007-.043-.013-.043s-.017.026-.024.045-.022.042-.033.042-.02-.01-.028-.029a.08.08,0,0,0-.076-.056.317.317,0,0,0-.138.049.423.423,0,0,1-.172.03l-.047,0-.03,0c-.08,0-.124.038-.126.074s.026.071.111.082a.2.2,0,0,1,.155.115c.012.037.013.062,0,.075a.04.04,0,0,1-.036.014h-.028a.1.1,0,0,0-.1.065.314.314,0,0,1-.218.184.043.043,0,0,1-.032-.011.036.036,0,0,0-.026-.012c-.015,0-.029.012-.036.033s-.053.047-.107.047l-.031,0h-.028a1.171,1.171,0,0,0-.312.059c-.115.037-.17.059-.173.084s.022.036.05.054a3.911,3.911,0,0,0,.793.149,3.459,3.459,0,0,1,.754.143.074.074,0,0,0,.047.023.039.039,0,0,0,.037-.031c.006-.017.076-.026.2-.026a4.3,4.3,0,0,1,1.182.145.06.06,0,0,0,.056.032.078.078,0,0,0,.033-.007c.021-.01.032-.021.034-.033s-.005-.028-.023-.046-.011-.016-.009-.021.021-.015.047-.015a.273.273,0,0,1,.04,0c.071.009.132.044.135.078,0,.014.007.022.017.022s.029-.012.046-.033a.09.09,0,0,1,.063-.038.034.034,0,0,1,.03.015c.018.027-.009.1-.062.156l-.1.106.1-.016a.5.5,0,0,1,.062-.007c.007,0,.01,0,.01,0s-.015.016-.05.038a.275.275,0,0,1-.145.036.467.467,0,0,1-.3-.115.26.26,0,0,0-.165-.076.091.091,0,0,0-.069.026.093.093,0,0,0-.02.072.039.039,0,0,1-.01.031.159.159,0,0,1-.112.026,1.232,1.232,0,0,1-.148-.011c-.173-.022-.279-.061-.283-.1,0-.015-.005-.023-.011-.023s-.024.019-.038.05c-.029.065-.128.092-.341.092h-.117c-.1,0-.219.006-.336.017a.083.083,0,0,1,.031.059c0,.019-.021.031-.048.031a.123.123,0,0,1-.04-.008.116.116,0,0,1-.072-.068c-.031,0-.065.01-.1.017a2.114,2.114,0,0,1-.358.042h-.062a1.316,1.316,0,0,0-.316.049c-.076.022-.112.034-.111.044a1.656,1.656,0,0,0,.476.056c.343.025.6.045.636.049h.053c.126,0,.485-.008.913-.021.29-.009.608-.014.852-.014.168,0,.291,0,.354.007.038,0,.075,0,.111,0,.095,0,.157-.009.167-.025a.008.008,0,0,0,0-.008.012.012,0,0,1,0-.013c.008-.012.037-.019.081-.019a.574.574,0,0,1,.078.006,1.191,1.191,0,0,0,.138.006,4.107,4.107,0,0,0,.42-.024c.117-.013.292-.02.495-.02a2.36,2.36,0,0,1,.6.041s0,.006-.01.009a.047.047,0,0,0-.025.027.07.07,0,0,0,0,.055.027.027,0,0,1,0,.027c-.009.015-.034.023-.069.023h-.039a.486.486,0,0,0-.24.089c-.077.057-.176.124-.218.15a16.412,16.412,0,0,1-1.938.275c-.587.062-1.042.1-1.249.1h-.029c-.2,0-.691.009-1.086.018-.358.008-.851.014-1.17.014h-.146a2.97,2.97,0,0,0-.66.061.53.53,0,0,1-.154.033.077.077,0,0,1-.079-.043,1.674,1.674,0,0,0-.78-.1c-.076,0-.155,0-.233,0h-.04c-.112,0-.335-.006-.529-.013-.057,0-.118,0-.18,0a6.913,6.913,0,0,0-1.213.107.657.657,0,0,1-.131.015.149.149,0,0,1-.091-.019.369.369,0,0,0-.14-.013c-.125,0-.316.011-.51.029-.222.021-.358.03-.453.03a.361.361,0,0,1-.257-.063.261.261,0,0,0-.189-.059,2.444,2.444,0,0,0-.368.044l-1.583.26-.24.039c-.174.029-.441.078-.588.11a1.839,1.839,0,0,1-.337.039.452.452,0,0,1-.06,0,.333.333,0,0,0-.047,0,.928.928,0,0,0-.277.05,8.026,8.026,0,0,1-1.478.192c-.486.043-.587.055-1.083.131-.235.036-.608.087-.832.113l-.269.031-.273.032A3.431,3.431,0,0,1-3925.968-2285.82Zm12.794-4.891a1.3,1.3,0,0,0-.14.009.937.937,0,0,0-.357.091.023.023,0,0,0-.01.025c.015.054.216.127.449.163a.911.911,0,0,0,.141.012.843.843,0,0,0,.375-.094,1.136,1.136,0,0,1,.336-.113h.009l.034,0c.014,0,.021,0,.023-.007s-.007-.023-.035-.051a.136.136,0,0,0-.082-.045.028.028,0,0,0-.017,0,.019.019,0,0,1-.013.006c-.012,0-.021-.015-.023-.039,0-.057.085-.085.4-.125.077-.01.146-.057.154-.1s.014-.052.026-.052.031.016.063.056.048.054.053.054,0-.026-.013-.068-.014-.062,0-.074a.033.033,0,0,1,.029-.011.157.157,0,0,1,.035,0,.274.274,0,0,0,.067.007.639.639,0,0,0,.16-.021.306.306,0,0,1,.084-.014.145.145,0,0,1,.121.058c.021.026.041.042.052.042a.008.008,0,0,0,.007,0,.024.024,0,0,0,0-.019.06.06,0,0,1,.021-.042.716.716,0,0,1,.376-.172h.025a.053.053,0,0,0,.04-.017.081.081,0,0,0,.019-.061c-.006-.065-.064-.09-.229-.1l-.085,0a1.038,1.038,0,0,0-.24.021,2.542,2.542,0,0,1-.4.043,2.132,2.132,0,0,0-.436.062,1.429,1.429,0,0,1-.143.042s0,0-.01,0a1.726,1.726,0,0,0-.41.149c-.11.059-.166.117-.157.164s.058.066.147.078.152.048.158.115a.057.057,0,0,1-.015.045.211.211,0,0,1-.151.039,1.515,1.515,0,0,1-.333-.049A.5.5,0,0,0-3913.174-2290.71Zm7.583-16.053h-.012a.241.241,0,0,0-.073.023.154.154,0,0,0-.054.144c.007.08.026.107.127.107l.061,0c.129-.007.227-.051.228-.086,0-.018-.024-.031-.069-.037a.171.171,0,0,1-.124-.079C-3905.529-2306.742-3905.554-2306.763-3905.59-2306.763Zm-36.511,20.888h0a.307.307,0,0,1-.039-.154l-.017-.146-.122.1a.2.2,0,0,1-.1.055c-.02,0-.033-.013-.039-.039s-.017-.047-.027-.047-.021.013-.037.04-.025.019-.053.019a8.385,8.385,0,0,1-1.444-.452c-.813-.287-1.791-.649-2.179-.808s-1.04-.425-1.473-.6a16.3,16.3,0,0,1-1.9-.8.886.886,0,0,0-.422-.252.036.036,0,0,0-.019,0,.048.048,0,0,1-.024.007c-.026,0-.048-.023-.058-.062s-.018-.051-.029-.051l-.007,0v-19.707l8.938,16.851a1.876,1.876,0,0,0,1.681,1.189,1.822,1.822,0,0,0,1.681-1.189l8.9-17.056v20.951a1.945,1.945,0,0,0,.253,1.026l-.1,0-.312.015c-.071,0-.158,0-.251,0-.172,0-.354,0-.486-.012-.219-.012-.592-.021-.849-.021h-.107c-.273,0-.571-.005-.71-.012l-.1,0a1.664,1.664,0,0,0-.356.031.7.7,0,0,1-.147.01,5.925,5.925,0,0,1-.662-.05c-.291-.037-.573-.063-.669-.063a.116.116,0,0,0-.032,0,.581.581,0,0,1-.133.008,10.538,10.538,0,0,1-1.17-.079.509.509,0,0,1-.265-.134c-.09-.118-.3-.157-1.241-.229-.2-.015-.391-.023-.558-.023a1.778,1.778,0,0,0-.4.03.807.807,0,0,1-.228.026,7.819,7.819,0,0,1-.978-.1c-.562-.081-1.463-.183-2.007-.229l-.091-.008a13.153,13.153,0,0,1-2.082-.3l-.084-.017a13.192,13.192,0,0,0-1.874-.258l-.076,0-.039,0a.137.137,0,0,1,.055.088l0,.007a.139.139,0,0,1,.01.036.019.019,0,0,1-.005.015.09.09,0,0,1-.061.014,1.409,1.409,0,0,1-.282-.046c-.2-.047-.792-.171-1.3-.273s-1.177-.249-1.48-.325c-.711-.179-1.14-.286-1.509-.375a.123.123,0,0,1,.022.034,1.667,1.667,0,0,0,.409.152c.26.076.408.147.441.211.021.041.033.058.042.058s.014-.015.018-.051.011-.045.015-.045.011.011.018.034a1.622,1.622,0,0,0,.569.28c.3.109,1.216.449,2.025.755.831.313,1.871.7,2.32.858a5.185,5.185,0,0,1,.837.344c0,.023.1.076.22.12a.675.675,0,0,0,.191.043c.023,0,.035,0,.036-.014a.038.038,0,0,1,.037-.036l.013,0a.029.029,0,0,1,.018.017.067.067,0,0,1-.008.054.053.053,0,0,0,0,.046.056.056,0,0,0,.035.033.088.088,0,0,1,.056.088.075.075,0,0,0,.036.08l.009,0a.016.016,0,0,0,.013-.006.067.067,0,0,0,0-.053.033.033,0,0,1,0-.029.047.047,0,0,1,.038-.013.235.235,0,0,1,.073.015c.065.023.094.04.1.056s-.008.021-.029.034-.042.03-.041.041.009.014.027.02.025.014.027.023-.01.037-.046.074a.173.173,0,0,1-.121.053.1.1,0,0,1-.035-.005.1.1,0,0,0-.033-.006.055.055,0,0,0-.059.047c0,.019-.011.029-.026.029a.108.108,0,0,1-.063-.034c-.027-.024-.045-.036-.055-.036a.009.009,0,0,0-.008,0c0,.006,0,.019,0,.04a.116.116,0,0,1,0,.072h0l0,0Zm3.2-.137a2.406,2.406,0,0,1-.464-.136,5.123,5.123,0,0,0-.629-.185.116.116,0,0,1-.109-.066c-.008-.035-.071-.076-.141-.092-.1-.023-.138-.059-.135-.083s.029-.029.072-.029a.415.415,0,0,1,.074.008.221.221,0,0,1,.136.061.015.015,0,0,1,0,.014c-.012.021-.016.037-.011.045a.012.012,0,0,0,.011.006.181.181,0,0,0,.1-.066.161.161,0,0,1,.118-.047.166.166,0,0,1,.165.112c.007.032.024.048.052.048a.13.13,0,0,0,.053-.014.129.129,0,0,1,.055-.013.085.085,0,0,1,.075.041.1.1,0,0,1-.006.1c-.011.019-.015.03-.012.035a.006.006,0,0,0,.006,0,.085.085,0,0,0,.034-.015.224.224,0,0,1,.1-.014,1.076,1.076,0,0,1,.194.02c.179.034.24.072.283.178.016.038.023.062.015.076a.028.028,0,0,1-.023.011Zm-14.262-4.081h0c-.378-.061-.856-.152-1.064-.2a6.232,6.232,0,0,0-.663-.126,6,6,0,0,1-.728-.154c-.227-.063-.97-.2-1.693-.314a12.4,12.4,0,0,1-1.455-.281,3.654,3.654,0,0,0-.53-.167c-.187-.043-.4-.1-.474-.129a7.884,7.884,0,0,0-1.231-.292,16.34,16.34,0,0,1-1.74-.425c-.118-.035-.282-.079-.366-.1s-.3-.075-.473-.122-.478-.121-.666-.167a2.576,2.576,0,0,1-.367-.106,1.542,1.542,0,0,0-.269-.094,1.613,1.613,0,0,1-.311-.115,2.217,2.217,0,0,0-.444-.113c-.57-.1-.57-.1-.579-.206,0-.053-.029-.1-.054-.1-.009,0-.014,0-.017.007a.078.078,0,0,0,.01.066c.011.024.014.039.01.044a.007.007,0,0,1-.006,0,.105.105,0,0,1-.045-.023.51.51,0,0,0-.172-.064c-.063-.009-.1-.055-.112-.141-.009-.07-.009-.1,0-.115a.01.01,0,0,1,.007,0c.015,0,.042.03.091.1s.1.111.133.111a.029.029,0,0,0,.024-.011.115.115,0,0,0,0-.094.171.171,0,0,1-.012-.064h0s.007,0,.021.027c.028.052.148.077.378.079a4.094,4.094,0,0,1,1.26.224c.213.063.512.15.648.188a1.882,1.882,0,0,1,.289.1.033.033,0,0,0,.017,0c.024,0,.044-.027.052-.068s.024-.06.056-.06a.256.256,0,0,1,.095.028,4.139,4.139,0,0,0,.668.214,1.918,1.918,0,0,1,.328.11,10.049,10.049,0,0,0,1.381.194,3.518,3.518,0,0,1,1.114.263,6.024,6.024,0,0,0,1.128.191c.027,0,.042,0,.046-.007,0-.027-.127-.085-.294-.132s-.334-.1-.378-.121a12.268,12.268,0,0,0-1.936-.491,1.1,1.1,0,0,1-.347-.1,11.518,11.518,0,0,0-1.421-.352h-.008a3.065,3.065,0,0,1-.353-.08c-.285-.078-.978-.243-1.149-.277a.07.07,0,0,1-.055-.053.088.088,0,0,1,.03-.089.16.16,0,0,1,.082-.012,3.071,3.071,0,0,1,.569.081.336.336,0,0,1,.2.126c.027.058.089.081.22.081l.068,0a1.072,1.072,0,0,0,.273-.031l.007,0c.02,0,.059.037.092.085s.057.066.076.066a.015.015,0,0,0,.015-.012c0-.008.025-.012.066-.012a4.785,4.785,0,0,1,1.07.2,2.383,2.383,0,0,0,.326.095.744.744,0,0,1,.274.123c.044.039.066.054.08.054a.011.011,0,0,0,.008,0c.006-.006.007-.021,0-.047a.061.061,0,0,1,.017-.046.151.151,0,0,1,.11-.037,5.758,5.758,0,0,1,1.185.167,1.7,1.7,0,0,0,.317.062c.019,0,.03,0,.032-.009s0-.011-.009-.019c-.045-.047-.061-.086-.049-.116s.077-.057.176-.057a1.877,1.877,0,0,1,.5.09,2.178,2.178,0,0,0,.594.134c.03,0,.062,0,.109-.006l.046,0a.624.624,0,0,1,.257.052,9.624,9.624,0,0,0,1.571.419,5.9,5.9,0,0,1,.643.136c.15.042.458.117.687.167s.751.173,1.182.282c.22.056.514.126.829.2v1.418Zm0-2h0c-.144-.035-.273-.065-.384-.089-.429-.095-.837-.2-.891-.219s-.488-.123-.967-.22c-.854-.174-1.464-.306-1.919-.413-.129-.03-.582-.13-.989-.219-.424-.093-.782-.181-.817-.2s-.1-.063-.153-.1a.963.963,0,0,0-.255-.1.377.377,0,0,1-.223-.147c-.047-.086-.155-.123-.55-.189a2.472,2.472,0,0,1-.536-.127,1.5,1.5,0,0,0-.368-.125c-.864-.212-1.7-.4-2.081-.47-.241-.043-.742-.168-1.118-.279s-.867-.234-1.076-.272c-1.45-.272-2.638-.531-3.259-.712-.221-.064-.593-.159-.83-.212a1.453,1.453,0,0,1-.469-.157.021.021,0,0,1,0-.021c.01-.015.041-.024.083-.024h.031c.075.007.192.015.258.016a.191.191,0,0,1,.143.051c.006.013.029.02.064.02a.412.412,0,0,0,.11-.017.411.411,0,0,1,.11-.012,1.3,1.3,0,0,1,.324.047c.157.043.99.184,1.817.308s1.846.287,2.24.364a5.418,5.418,0,0,0,.647.1c.019,0,.028,0,.029-.006s-.041-.031-.248-.09a.954.954,0,0,1-.255-.1.033.033,0,0,1,0-.034.338.338,0,0,1,.239-.116c.093-.006.136-.035.137-.06s-.027-.039-.077-.048-.343-.077-.662-.153c-.3-.072-.9-.2-1.339-.273-.7-.126-.781-.152-.79-.252-.012-.141-.184-.2-1.224-.393a3.643,3.643,0,0,1-.787-.2.366.366,0,0,0-.215-.082c-.137-.018-.217-.057-.219-.105,0-.068.142-.143.369-.19a1.273,1.273,0,0,1,.237-.023.6.6,0,0,1,.12.01,1.473,1.473,0,0,0,.267.04c.034,0,.052-.006.054-.016.006-.04-.219-.138-.535-.233-.226-.068-.559-.162-.733-.2-.153-.037-.452-.117-.668-.183s-.615-.164-.9-.225c-.36-.075-.551-.141-.584-.2a.759.759,0,0,0-.353-.171.794.794,0,0,1-.35-.165.845.845,0,0,0-.364-.167,1.18,1.18,0,0,1-.418-.191,1.152,1.152,0,0,0-.509-.189,3.225,3.225,0,0,1-1.013-.3.017.017,0,0,1,0-.017.424.424,0,0,1,.247-.054.254.254,0,0,1,.15.03.041.041,0,0,0,.026.015.011.011,0,0,0,.009,0,.035.035,0,0,0,.005-.026c0-.033-.074-.088-.158-.122s-.154-.086-.155-.129.021-.053.064-.073c.027-.013.04-.029.039-.05,0-.078-.212-.2-.559-.34-.31-.119-.511-.235-.5-.269,0-.007.012-.011.031-.011h.044c.017,0,.027,0,.028-.01a.9.9,0,0,0-.406-.193.935.935,0,0,1-.334-.148,1.156,1.156,0,0,0-.329-.168c-.216-.079-.323-.139-.316-.177s.1-.05.266-.05h.061a.453.453,0,0,0,.315-.085.126.126,0,0,1,.116-.054,1.232,1.232,0,0,1,.283.055,2.592,2.592,0,0,0,.546.112.173.173,0,0,0,.185-.115.322.322,0,0,0,.038-.182.893.893,0,0,0-.312-.13,1.107,1.107,0,0,1-.337-.139.822.822,0,0,0-.254-.127c-.132-.046-.208-.092-.2-.123s.049-.034.126-.034a1.357,1.357,0,0,1,.174.014,1.725,1.725,0,0,0,.222.017c.032,0,.107,0,.118-.019s.074-.016.112-.016a2.3,2.3,0,0,1,.281.021,1.87,1.87,0,0,0,.237.02c.089,0,.133-.016.138-.049a.056.056,0,0,0-.01-.044.219.219,0,0,0-.142-.055,1.182,1.182,0,0,1-.317-.1,3.281,3.281,0,0,0-.517-.165,1.291,1.291,0,0,1-.416-.155.089.089,0,0,0-.059-.04.019.019,0,0,0-.016.008.025.025,0,0,1-.021.008.235.235,0,0,1-.1-.04c-.028-.019-.039-.031-.036-.041s.07-.027.228-.027a1.992,1.992,0,0,0,.725-.126c.019-.008.028-.018.027-.03,0-.05-.184-.131-.588-.261a1.719,1.719,0,0,1-.446-.182.6.6,0,0,0-.279-.048c-.22-.008-.276-.028-.281-.1a.332.332,0,0,1,.089-.222.138.138,0,0,1,.091-.053h.008c.025,0,.036.009.038.016s-.012.026-.036.047-.036.036-.033.046.021.014.051.018h.009a.1.1,0,0,0,.084-.085c.007-.037.026-.06.1-.06a2.68,2.68,0,0,1,.414.064,2.572,2.572,0,0,0,.443.062c.074,0,.117-.013.133-.041s.005-.068-.031-.128a2.281,2.281,0,0,0-1.337-.779c-.275-.038-.427-.135-.439-.281a.055.055,0,0,1,.012-.045.132.132,0,0,1,.1-.023,1.69,1.69,0,0,1,.215.02,2.035,2.035,0,0,1,.505.135,5.961,5.961,0,0,0,.988.227,6.366,6.366,0,0,0,.708.1.119.119,0,0,0,.086-.021.1.1,0,0,0,.014-.071.265.265,0,0,0-.157-.252c-.026-.008-.217-.085-.418-.167a11.913,11.913,0,0,0-1.871-.6c-.442-.1-.652-.182-.7-.274a.1.1,0,0,1-.006-.082.035.035,0,0,1,.031-.026.046.046,0,0,1,.031.015.029.029,0,0,0,.017.01.009.009,0,0,0,.007,0,.07.07,0,0,0,0-.049.066.066,0,0,1,.008-.055.038.038,0,0,1,.031-.014l.016,0,.023,0a.033.033,0,0,0,.029-.011.029.029,0,0,0,0-.027.022.022,0,0,1,0-.02.167.167,0,0,1,.116-.052.173.173,0,0,0,.14-.08c.029-.056.014-.14-.046-.255s-.066-.167-.038-.223a.121.121,0,0,0,.008-.115.138.138,0,0,0-.111-.063c-.041-.006-.078-.023-.08-.037a1.121,1.121,0,0,0-.04-.141c-.011-.032-.016-.055-.006-.068s.021-.013.043-.013a1.8,1.8,0,0,1,.309.06c.217.052.457.119.546.152a.375.375,0,0,0,.112.029.041.041,0,0,0,.032-.011.076.076,0,0,0,.01-.059.18.18,0,0,1,.055-.147.154.154,0,0,0,.037-.127.6.6,0,0,0-.165-.406c-.048-.034-.073-.052-.071-.06s.01-.006.029-.006h.066c.017,0,.024,0,.025,0s-.019-.023-.065-.058c-.023-.017-.032-.028-.029-.037s.038-.02.105-.02.193.008.383.026l.055,0a.294.294,0,0,0,.217-.071.112.112,0,0,0,.03-.088.067.067,0,0,1,.016-.054.093.093,0,0,1,.07-.024h.023a.58.58,0,0,0,.072,0,.536.536,0,0,0,.138-.015c.043-.012.063-.019.067-.032s-.014-.041-.056-.089a.4.4,0,0,0-.2-.113,1.427,1.427,0,0,1-.417-.278,1.322,1.322,0,0,0-.44-.279,1.82,1.82,0,0,1-.649-.2.01.01,0,0,1,0-.009.026.026,0,0,0,0-.024.066.066,0,0,0-.053-.021c-.04,0-.083-.052-.1-.113a.221.221,0,0,1,.06-.175.33.33,0,0,1,.228-.133.13.13,0,0,1,.045.008.131.131,0,0,0,.047.01c.032,0,.054-.015.057-.04s.07-.047.178-.047a1.39,1.39,0,0,1,.534.106,6.016,6.016,0,0,0,.975.207,6.1,6.1,0,0,0,.729.085c.053,0,.081-.006.083-.018s-.039-.041-.124-.077c-.061-.026-.2-.088-.317-.141a1.716,1.716,0,0,0-.377-.118c-.1-.014-.184-.055-.188-.09a.084.084,0,0,0-.072-.073.4.4,0,0,1-.16-.09c-.05-.044-.071-.063-.069-.081s.024-.032.07-.062.088-.081.087-.127c0-.08-.1-.175-.293-.289a.872.872,0,0,1-.312-.261.419.419,0,0,0-.069-.137.162.162,0,0,1-.017-.164c.014-.033.035-.052.057-.052a.049.049,0,0,1,.027.009.109.109,0,0,0,.043.021s0-.009,0-.015c-.016-.024.013-.111.064-.19a.25.25,0,0,1,.235-.133h.04l.05,0c.059,0,.1-.009.111-.022a.011.011,0,0,0,0-.01c0-.008.011-.01.034-.01a2.225,2.225,0,0,1,.355.052,1.859,1.859,0,0,0,.338.05.147.147,0,0,0,.135-.052.367.367,0,0,1,.266-.067,1.124,1.124,0,0,1,.443.085.266.266,0,0,0,.105.03.051.051,0,0,0,.054-.032.106.106,0,0,1,.1-.054h.021a.391.391,0,0,0,.053,0,.2.2,0,0,0,.151-.05.07.07,0,0,0,.02-.057.076.076,0,0,0-.066-.065c-.034,0-.082-.053-.107-.11a1.092,1.092,0,0,0-.456-.272c-.507-.21-.885-.475-.862-.6.006-.034.025-.057.05-.057a.049.049,0,0,1,.029.01.067.067,0,0,0,.031.013.009.009,0,0,0,.008,0s0-.014,0-.028a.442.442,0,0,1,.066-.245c.053-.1.094-.146.138-.146a.094.094,0,0,1,.047.014.12.12,0,0,0,.051.02.013.013,0,0,0,.012,0,.027.027,0,0,0,0-.024.022.022,0,0,1,0-.022c.01-.017.045-.027.09-.027h.065a1.99,1.99,0,0,0,.4-.057l.289-.07-.109-.164a.531.531,0,0,0-.147-.17.814.814,0,0,1-.195-.128c-.149-.12-.153-.13-.1-.263.033-.088.035-.156,0-.183a.117.117,0,0,1-.024-.109c.006-.016.013-.024.021-.024s.029.018.045.053.033.053.047.053.017-.008.024-.024a.454.454,0,0,1,.146-.136l.12-.075-.137-.039a.253.253,0,0,1-.181-.189.07.07,0,0,1,.042-.073.1.1,0,0,1,.042-.01.053.053,0,0,1,.045.019.021.021,0,0,0,.018.007.3.3,0,0,0,.14-.069.743.743,0,0,1,.289-.124.346.346,0,0,0,.208-.1c.027-.044.048-.065.088-.065a1.409,1.409,0,0,1,.415.172.976.976,0,0,0,.388.138.25.25,0,0,0,.206-.134c.037-.053.063-.078.112-.078a.706.706,0,0,1,.22.067,2.552,2.552,0,0,0,.728.154c.048,0,.076-.006.083-.018a.014.014,0,0,0,0-.014,1.09,1.09,0,0,0-.344-.177c-.333-.127-.446-.176-.452-.215,0-.012,0-.024.023-.04a.04.04,0,0,0,.013-.041c-.029-.135-.557-.423-1.027-.562a.783.783,0,0,1-.3-.132.371.371,0,0,1,.051-.211c.068-.147.068-.168,0-.28a.768.768,0,0,1-.082-.158.011.011,0,0,1,0-.008.061.061,0,0,1,.04-.009,3.082,3.082,0,0,1,.928.295,2.939,2.939,0,0,0,1.041.358c.038,0,.062-.007.07-.02a.133.133,0,0,0-.012-.154c-.052-.085-.125-.13-.711-.432-.183-.094-.278-.174-.282-.237a.062.062,0,0,1,.009-.048.062.062,0,0,1,.048-.014,1.275,1.275,0,0,1,.254.052,1.213,1.213,0,0,0,.269.047c.042,0,.066-.009.072-.025a.059.059,0,0,0,0-.05.04.04,0,0,0-.029-.02.044.044,0,0,1-.034-.019.018.018,0,0,1,0-.018s.008,0,.012,0a2.471,2.471,0,0,1,.7.313,3.109,3.109,0,0,0,.817.291.064.064,0,0,0,.049-.021.073.073,0,0,0,.018-.057.7.7,0,0,1,.008-.162,4.238,4.238,0,0,0-1.433-.628,1.905,1.905,0,0,1-.411-.2.839.839,0,0,0-.3-.135.776.776,0,0,1-.442-.222.029.029,0,0,1,0-.029c.011-.017.112-.02.17-.02.109,0,.255.008.4.023.258.025.465.042.516.042.011,0,.012,0,.012,0s-.113-.083-.23-.163-.183-.127-.183-.158.02-.034.052-.058a.154.154,0,0,1,.094-.03.562.562,0,0,1,.213.062,1.034,1.034,0,0,0,.265.1.028.028,0,0,0,.022-.008c.007-.007.009-.02.007-.042s-.064-.085-.135-.117c-.105-.047-.162-.091-.156-.121s.045-.034.113-.034a.93.93,0,0,1,.126.01,1.068,1.068,0,0,0,.132.009.509.509,0,0,0,.265-.056.26.26,0,0,1,.141-.045.165.165,0,0,1,.083.021,15.494,15.494,0,0,0,2.058.31c.025,0,.039,0,.041-.006a.036.036,0,0,1,0-.034c.013-.021.057-.031.127-.031a2.929,2.929,0,0,1,.858.195,13.03,13.03,0,0,0,2.349.7,7.183,7.183,0,0,1,.987.227c.24.076.685.206.987.281a4.663,4.663,0,0,1,.561.164,2.141,2.141,0,0,0,.352.112c.185.047.393.1.474.129.174.054.957.222,1.523.326.418.079,1.045.22,1.458.329.142.038.689.138,1.218.222.554.09,1.165.206,1.391.265.241.06.9.168,1.443.236a8.589,8.589,0,0,0,.882.089c.1,0,.151-.014.163-.049s.023-.055.035-.055.026.023.044.06a.128.128,0,0,0,.125.078.258.258,0,0,0,.042,0l.034,0a.178.178,0,0,1,.141.058.374.374,0,0,0,.2.108,1,1,0,0,1,.229.082,1.4,1.4,0,0,0,.5.176,2.143,2.143,0,0,0-.08.6v21.887Zm-20.766-9.148h0c-.005,0-.007.02-.005.046a1.216,1.216,0,0,0,.438.184,3.054,3.054,0,0,0,.552.141c.018,0,.029,0,.033-.011s0-.022-.014-.043a1.741,1.741,0,0,0-.519-.186c-.236-.06-.477-.123-.483-.13Zm-.38-1h0s-.007.018-.006.044a1.014,1.014,0,0,0,.363.171,4.906,4.906,0,0,1,.464.181.165.165,0,0,0,.066.025.015.015,0,0,0,.013-.005c0-.006,0-.015,0-.028a1.262,1.262,0,0,0-.412-.2c-.209-.07-.4-.142-.426-.156l-.047-.027-.008,0Zm34.882,7.692v0l-10.069-19.3,1.26.162.174.022.282.036c.907.116,1.8.251,1.948.3a1.224,1.224,0,0,0,.293.055.108.108,0,0,0,.042-.006.339.339,0,0,1,.087-.006c.313,0,1.42.086,1.794.146a.617.617,0,0,0,.1.008.466.466,0,0,0,.436-.207c.013-.047-.01-.09-.065-.123a.031.031,0,0,1-.016-.026c0-.022.021-.05.059-.077a.388.388,0,0,0,.119-.121c.021-.057.14-.082.248-.082a.424.424,0,0,1,.256.065,1,1,0,0,0,.51.123c.225.017.958.089,1.632.16.584.062,1.124.107,1.284.107a.208.208,0,0,0,.042,0,.506.506,0,0,1,.093-.006c.109,0,.277.01.44.028a2.614,2.614,0,0,0,.288.017.5.5,0,0,0,.223-.029,1.193,1.193,0,0,1,.458-.1.183.183,0,0,1,.073.01.511.511,0,0,0,.225.043.816.816,0,0,0,.145-.013.8.8,0,0,1,.149-.014.366.366,0,0,1,.081.007l.173.045a1.115,1.115,0,0,0,.188.01c.093,0,.2,0,.3-.009s.185-.007.284-.007a2.657,2.657,0,0,1,.3.012.619.619,0,0,0,.082.006.229.229,0,0,0,.147-.034.382.382,0,0,1,.18-.08.4.4,0,0,1,.069-.008c.05,0,.068.022.074.09.008.089.043.1.239.1h.09c.174,0,.6.031.971.072a6.875,6.875,0,0,0,.7.044,1.24,1.24,0,0,0,.2-.012c.119-.024.222-.042.241-.042l.006,0a.228.228,0,0,0-.043-.1.318.318,0,0,0-.2-.122c-.086-.011-.146-.032-.147-.046a1.044,1.044,0,0,0-.037-.13c-.013-.04-.014-.069,0-.084a.028.028,0,0,1,.025-.012c.034,0,.1.04.158.129.036.053.06.078.075.078s.016-.011.019-.034.017-.046.032-.046a.03.03,0,0,1,.021.01.042.042,0,0,0,.025.014.01.01,0,0,0,.008,0,.026.026,0,0,0,0-.021.031.031,0,0,1,.009-.023.107.107,0,0,1,.076-.024h.007c.053,0,.341.006.642.006s.906.039,1.354.084c.367.038.72.064.857.064h.037l-9.74,18.9Zm4.8-18.094c-.066,0-.136,0-.2.01a.956.956,0,0,0-.155.027c-.09.026-.125.043-.127.06s.012.022.043.037a16.353,16.353,0,0,0,2.183.154c.015,0,.017,0,.017,0,0-.029-1.386-.263-1.661-.282C-3934.556-2312.639-3934.59-2312.64-3934.628-2312.64Zm-1.559-.022h-.041l-.012,0-.014,0c-.052.017-.135.04-.186.052q-.012,0-.012.007a.527.527,0,0,0,.205.043,2.206,2.206,0,0,0,.247.017c.083,0,.133-.01.136-.027s-.038-.04-.115-.065A.705.705,0,0,0-3936.187-2312.662Zm10.328,2.3h0v-3.342a.269.269,0,0,0,.059-.068.248.248,0,0,1,.188-.129h.01c.35.029.8.048,1.183.048.191,0,.347,0,.453-.014.133-.01.377-.022.539-.022a4.033,4.033,0,0,0,.5-.032c.109-.017.207-.03.222-.03a.438.438,0,0,1,.031.165c.006.075.025.134.044.134a.01.01,0,0,0,.007,0l.007,0c.025,0,.074.087.114.2.048.135.112.237.154.242s.041.009.046.02,0,.033-.017.072c-.032.063-.028.092.016.118s.046.057,0,.143-.041.115,0,.142a.146.146,0,0,1,.061.1.04.04,0,0,1-.006.028.013.013,0,0,1-.01,0,.041.041,0,0,1-.025-.014c-.007-.007-.012-.01-.016-.01a.006.006,0,0,0,0,0c-.005.008,0,.032.01.065a.114.114,0,0,1,0,.088.017.017,0,0,1-.014.008h-.009a.018.018,0,0,0-.015.007c-.01.014,0,.052.029.12s.038.1.029.117a.026.026,0,0,1-.024.009h-.015l-.02,0c-.01,0-.017,0-.02.008s0,.032.034.077a.087.087,0,0,0,.07.046.064.064,0,0,0,.05-.025.132.132,0,0,0,.02-.11.073.073,0,0,1,.036-.078l.011,0a.016.016,0,0,1,.013.006c.013.014.016.052.011.114a.189.189,0,0,0,.01.109.008.008,0,0,0,.006,0l.007,0a.04.04,0,0,1,.024-.006.2.2,0,0,1,.1.036c.03.02.043.033.04.043s-.039.026-.127.037c-.109.013-.174.055-.17.112a.074.074,0,0,1-.017.059.064.064,0,0,1-.048.021h-.018a.159.159,0,0,0-.122.105.441.441,0,0,1-.295.226.062.062,0,0,1-.026,0,.057.057,0,0,0-.021,0,1.307,1.307,0,0,0-.249.045,2.883,2.883,0,0,1-.5.068c-.144,0-.27.033-.281.063a.1.1,0,0,1-.094.045h-.025a.874.874,0,0,0-.325.144.954.954,0,0,1-.307.146h-.013a.088.088,0,0,0-.083.052.058.058,0,0,0,0,.05.034.034,0,0,0,.025.017c.033,0,.05.1.045.183,0,.064-.02.1-.041.1a1.415,1.415,0,0,0-.223.054.575.575,0,0,1-.162.023.3.3,0,0,1-.124-.021.307.307,0,0,0-.128-.024.354.354,0,0,0-.109.016,2.9,2.9,0,0,1-.361.082l-.148.027Z" transform="translate(4118.597 2355.773)" fill="#e4064a" stroke="rgba(0,0,0,0)" stroke-miterlimit="10" stroke-width="1"/>
  </g>
</svg>
