<svg xmlns="http://www.w3.org/2000/svg" width="12" height="12" viewBox="0 0 12 12">
  <g id="twitter" transform="translate(0.006 -0.033)" opacity="0.66">
    <path id="Exclusion_2" data-name="Exclusion 2" d="M10.528,12H1.472A1.472,1.472,0,0,1,0,10.528V1.472A1.472,1.472,0,0,1,1.472,0h9.056A1.471,1.471,0,0,1,12,1.472v9.057A1.472,1.472,0,0,1,10.528,12ZM1.558,8.791h0a5.169,5.169,0,0,0,2.794.819,5.25,5.25,0,0,0,2.225-.472A4.906,4.906,0,0,0,8.2,7.92a5.289,5.289,0,0,0,.579-.8A5.468,5.468,0,0,0,9.2,6.25a5.416,5.416,0,0,0,.254-.912,5.041,5.041,0,0,0,.085-.915c0-.075,0-.152-.005-.236a3.68,3.68,0,0,0,.91-.944A3.645,3.645,0,0,1,9.4,3.531a1.823,1.823,0,0,0,.8-1.009,3.637,3.637,0,0,1-1.158.442A1.823,1.823,0,0,0,5.886,4.212a1.835,1.835,0,0,0,.047.415,5.2,5.2,0,0,1-1.1-.175,5.168,5.168,0,0,1-1.01-.393,5.2,5.2,0,0,1-.894-.585,5.23,5.23,0,0,1-.753-.752A1.825,1.825,0,0,0,2.74,5.157a1.826,1.826,0,0,1-.826-.228v.023A1.824,1.824,0,0,0,3.377,6.739a1.831,1.831,0,0,1-.823.031,1.825,1.825,0,0,0,1.7,1.266,3.657,3.657,0,0,1-2.264.78A3.74,3.74,0,0,1,1.558,8.791Z" transform="translate(-0.006 0.033)"/>
  </g>
</svg>
